/* XPM */
static char *e26a459b2cad41228848c3626da086ec7TTXZfCn0A2MIf10[] = {
/* columns rows colors chars-per-pixel */
"16 16 84 1 ",
"  c None",
". c black",
"X c #0D1A0D",
"o c #2B0C0C",
"O c #2E0D0D",
"+ c #330D0D",
"@ c #390C0C",
"# c #3A0D0D",
"$ c #3C0E0E",
"% c #3A1111",
"& c #142A13",
"* c #0C341C",
"= c #0B3B1F",
"- c #431010",
"; c #451111",
": c #441414",
"> c #491111",
", c #4A1111",
"< c #4B1212",
"1 c #491414",
"2 c #491515",
"3 c #511717",
"4 c #5A1414",
"5 c #5B1515",
"6 c #5E1515",
"7 c #5F1515",
"8 c #5E1616",
"9 c #5F1616",
"0 c #601616",
"q c #621616",
"w c #6E1B1B",
"e c #691E1E",
"r c #6A1E1E",
"t c #721919",
"y c #771A1A",
"u c #7B1A1A",
"i c #7B1B1B",
"p c #782121",
"a c #7A2222",
"s c #25401D",
"d c #0D4324",
"f c #0F4E28",
"g c #2B4C23",
"h c #395E2A",
"j c #146B37",
"k c #4C7232",
"l c #AC2323",
"z c #BE2626",
"x c #A53030",
"c c #A93131",
"v c #C72828",
"b c #D32A2A",
"n c #DD2C2C",
"m c #C83A3A",
"M c #DA3E3E",
"N c #E13030",
"B c #E23131",
"V c #E33232",
"C c #E83737",
"Z c #EC3B3B",
"A c #E83E3E",
"S c #EE3D3D",
"D c #F03F3F",
"F c #E94343",
"G c #EC4444",
"H c #EF4545",
"J c #F14040",
"K c #F94848",
"L c #F94A4A",
"P c #F94B4B",
"I c #F94D4D",
"U c #F95050",
"Y c #FB6E6E",
"T c #FB6F6F",
"R c #FB7575",
"E c #23B75F",
"W c #25B85F",
"Q c #449849",
"! c #589644",
"~ c #3DC05F",
"^ c #52C760",
"/ c #7DD560",
"( c #9EE061",
") c #A2E060",
/* pixels */
"          sh!g& ",
"         k)(/^* ",
"        XQ~WEj  ",
"       .  df=   ",
"   -55w+2:3O    ",
"  <lnnt@aHKM:   ",
" ;vnnCHmFKKUIa  ",
" 7nnNKKKKKKRYr  ",
" unnZKKKKKKRYx  ",
" unnDKKKKKKKKc  ",
" qnnDKKKKKKKKr  ",
" <bnDKKKKKKKK%  ",
"  unBKKKKKKKc   ",
"  -znAKKKKKFo   ",
"   <vnVJDJA2    ",
"    @7777q$     "
};
