/* XPM */
static char *a217b876283447d5f88accb1c4ba8193EH6qkpAW4T05Ei3J[] = {
/* columns rows colors chars-per-pixel */
"16 16 87 1 ",
"  c None",
". c #1D0D0F",
"X c #1B140A",
"o c #131010",
"O c #191012",
"+ c #191213",
"@ c #191919",
"# c #1D1D1D",
"$ c #1F1E1F",
"% c gray12",
"& c #20180C",
"* c #231B0D",
"= c #241B0D",
"- c #241B0E",
"; c #251D0D",
": c #2B1F0F",
"> c #230F11",
", c #271013",
"< c #2C1314",
"1 c #2A200F",
"2 c #2B210F",
"3 c #302410",
"4 c #392B14",
"5 c #332919",
"6 c gray13",
"7 c #252525",
"8 c gray17",
"9 c #2D2D2D",
"0 c #302F30",
"q c #313131",
"w c #3B3538",
"e c #383738",
"r c #433218",
"t c #45311A",
"y c #4E3B1B",
"u c #492326",
"i c #4C2C2F",
"p c #47383A",
"a c #6D2D33",
"s c #664D23",
"d c #6B5125",
"f c #444444",
"g c #4A494B",
"h c #4D4C4E",
"j c #4E4D4F",
"k c #504C45",
"l c #565155",
"z c #555556",
"x c #5B595C",
"c c #65595C",
"v c #605F60",
"b c #666668",
"n c #696769",
"m c #716F73",
"M c #797779",
"N c #79777A",
"B c #926F33",
"V c #946F34",
"C c #A77D3A",
"Z c #954244",
"A c #B64C56",
"S c #BF4F59",
"D c #C6525C",
"F c #B3873F",
"G c #C79746",
"H c #D7A34C",
"J c #E0AA4F",
"K c #EFB554",
"L c #F1B655",
"P c #F6B957",
"I c #FCBF59",
"U c #FFC15A",
"Y c #858387",
"T c #9F9CA0",
"R c #A19FA3",
"E c #A4A3A5",
"W c #A4A2A6",
"Q c #A4A4A5",
"! c #A9A6AB",
"~ c #ACA9AE",
"^ c #AEABB0",
"/ c #B1AEB3",
"( c #B2B1B3",
") c #B3B2B3",
"_ c #B3B0B5",
"` c #B6B5B6",
"' c #B7B5B8",
/* pixels */
"     >+ =3      ",
"    ,Swn5C*     ",
"    aiT_!k@     ",
"   <Al____~Nxg79",
"    +~_______Rve",
"    opW______mW8",
"    ,Duc/____))#",
"    2tZ.0^__'`f ",
"   *FJX  j_YbQ# ",
"   rUy   #jz`6  ",
"  -HP     qN6   ",
"  sUV           ",
" 2KG            ",
" BL:            ",
"2Ud             ",
" 4-             "
};
