/* XPM */
static char *_4cd2b9c02604b8b935ca018fce1479cc4vlRPQnsJMcIV8H[] = {
/* columns rows colors chars-per-pixel */
"64 64 175 2 ",
"   c None",
".  c #005D04",
"X  c #005E04",
"o  c #005F04",
"O  c #005E05",
"+  c #006004",
"@  c #006104",
"#  c #006204",
"$  c #006205",
"%  c #006305",
"&  c #006504",
"*  c #006405",
"=  c #006605",
"-  c #006705",
";  c #006506",
":  c #006606",
">  c #006706",
",  c #006806",
"<  c #006906",
"1  c #006907",
"2  c #006A06",
"3  c #006B06",
"4  c #006A07",
"5  c #006C06",
"6  c #006D06",
"7  c #006E06",
"8  c #006F06",
"9  c #006F07",
"0  c #006F08",
"q  c #007006",
"w  c #007107",
"e  c #007207",
"r  c #007307",
"t  c #007208",
"y  c #007508",
"u  c #007608",
"i  c #007A08",
"p  c #007F0D",
"a  c #00800D",
"s  c #00820E",
"d  c #00830E",
"f  c #00840E",
"g  c #00870E",
"h  c #00860F",
"j  c #00880E",
"k  c #00890E",
"l  c #00880F",
"z  c #00890F",
"x  c #008B0E",
"c  c #008B0F",
"v  c #008C0F",
"b  c #008D0F",
"n  c #008E0F",
"m  c #008F0F",
"M  c #00910F",
"N  c #00940F",
"B  c #00960E",
"V  c #00970F",
"C  c #009F0F",
"Z  c #008F10",
"A  c #009010",
"S  c #009110",
"D  c #009210",
"F  c #009910",
"G  c #009A10",
"H  c #009B10",
"J  c #009A11",
"K  c #009C10",
"L  c #009D10",
"P  c #009D11",
"I  c #009E10",
"U  c #009F10",
"Y  c #009E11",
"T  c #009F11",
"R  c #00A00F",
"E  c #00A010",
"W  c #00A011",
"Q  c #00A111",
"!  c #00A211",
"~  c #00A311",
"^  c #00A212",
"/  c #00A312",
"(  c #00A411",
")  c #00A511",
"_  c #00A611",
"`  c #00A711",
"'  c #00A412",
"]  c #00A512",
"[  c #00A612",
"{  c #00A712",
"}  c #00A811",
"|  c #00A812",
" . c #00A912",
".. c #00A913",
"X. c #00AA12",
"o. c #00AB12",
"O. c #00AA13",
"+. c #00AB13",
"@. c #00AC12",
"#. c #00AC13",
"$. c #00AD13",
"%. c #00AE13",
"&. c #00AF13",
"*. c #00AC14",
"=. c #00AD14",
"-. c #00AE14",
";. c #00AF14",
":. c #00B013",
">. c #00B113",
",. c #00B213",
"<. c #00B313",
"1. c #00B413",
"2. c #00B513",
"3. c #00B613",
"4. c #00B713",
"5. c #00B014",
"6. c #00B114",
"7. c #00B214",
"8. c #00B314",
"9. c #00B414",
"0. c #00B514",
"q. c #00B614",
"w. c #00B714",
"e. c #00B615",
"r. c #00B715",
"t. c #00B813",
"y. c #00B913",
"u. c #00B814",
"i. c #00B914",
"p. c #00B815",
"a. c #00BA14",
"s. c #00BB14",
"d. c #00BC14",
"f. c #00BD14",
"g. c #00BD15",
"h. c #00BF14",
"j. c #00BE15",
"k. c #00BF15",
"l. c #00C014",
"z. c #00C015",
"x. c #00C115",
"c. c #00C215",
"v. c #00C016",
"b. c #00C116",
"n. c #00C216",
"m. c #00C316",
"M. c #00C415",
"N. c #00C515",
"B. c #00C615",
"V. c #00C715",
"C. c #00C416",
"Z. c #00C516",
"A. c #00C616",
"S. c #00C716",
"D. c #00C815",
"F. c #00C816",
"G. c #00C916",
"H. c #00CA16",
"J. c #00CB17",
"K. c #00CC17",
"L. c #00CE16",
"P. c #00CE17",
"I. c #00D016",
"U. c #00D116",
"Y. c #00D117",
"T. c #00D216",
"R. c #00D318",
"E. c #00D418",
"W. c #00D518",
"Q. c #00D618",
"!. c #00D718",
"~. c #00D818",
"^. c #00D918",
"/. c #00DA18",
"(. c #00DB18",
/* pixels */
"X X X * $ $ $ $ $ * $ * * * * , , - - * * , * , , , , , * , , * , , * , , , 6 q 6 6 q q q q q q , 6 6 q q q 6 , 6 6 , 6 6 6 * X ",
"X X * p p p d p d F k k F T V C V C C C T R ^ R ^ ^ [ R [ ^ [ [ [ ..........y.D.H.H.H.M.M.H.M.H.:.:.1.H.H.H.j.8.1.1.i.9.9.y.B X ",
"X X * f s s s s Z ^ n A [ [ [ [ ..} ..} ..$...$.-.-.$.:.8.8.8.9.1.9.i.9.9.y.H.(.~.(.~.~.(.(.(.(.j.c.M.(.~.~.K.S.M.F.F.S.H.K.^ . ",
"X X * d s s s s f T n Z ^ ^ ^ [ [ [ } ............$.$.$.$.:.$.:.:.:.9.9.9.1.M.(.~.~.~.!.(.W.W.W.j.j.c.(.~.~.F.m.M.M.S.S.M.M.R . ",
"X X > s s s s s f ^ n Z ^ [ ^ [ ..[ ....} ......$.$.$.$.:.:.:.1.8.9.9.9.9.9.H.~.~.~.~.~.~.~.~.~.j.j.S.!.!.~.K.m.m.m.S.S.H.H.C X ",
"X X > s s s s s k ^ n Z [ ^ ^ [ ..R R ....} $.$.$.$.$.$.:.:.:.:.8.9.9.9.9.i.M.~.~.~.~.~.~.~.~.~.j.c.S.~.~.~.K.m.S.m.S.S.M.H.C X ",
"X X > s s s s s k ^ n Z ^ [ [ [ ....} ..} $.$...$.$.$.:.:.:.:.:.8.8.9.9.9.9.H.~.~.~.~.~.~.~.~.~.j.j.M.~.~.~.K.m.m.S.S.S.M.H.C X ",
"X X > s s s s s f ^ n Z ^ ^ [ ^ ..R ..} ..} ......$.$.$.$.:.:.:.8.8.9.9.9.i.M.~.~.~.~.~.~.~.~.~.j.j.M.~.~.~.K.m.m.m.S.M.H.M.C X ",
"X X > s s s s s k ^ n Z ^ ^ [ [ ..[ ......@...$.$.$.$.$.:.:.:.:.8.8.8.8.9.i.F.~.~.~.~.~.~.~.~.~.j.j.S.!.~.~.K.m.m.S.S.S.S.S.T X ",
"X X ; s s s s s f ^ n Z ^ [ ^ [ ..R R ....} ..$.$.$.$.$.:.:.:.1.8.8.8.8.9.9.F.~.~.~.~.~.~.~.~.~.j.j.m.!.~.~.K.m.m.S.S.m.S.S.T X ",
"X X > s s s s s k T n Z [ ^ ^ [ [ ....} } $.....$.$.$.:.:.:.:.:.8.8.9.9.9.i.S.~.~.~.~.~.~.~.~.~.j.c.S.!.~.~.K.m.m.m.S.S.H.H.C . ",
"X X > s s s s s Z T n Z ^ [ ^ [ [ [ } ..$.} ..$.$.$.$.$.$.:.:.:.8.8.9.9.9.9.S.~.~.~.~.~.~.~.~.~.j.j.S.~.~.~.K.m.m.S.S.S.M.M.C . ",
"X X > p p d d s f ^ n Z ^ ^ [ [ ..[ ....} ........$.$.$.:.:.:.:.8.8.9.9.9.9.F.~.~.~.~.~.~.~.~.~.j.j.S.!.~.~.K.m.m.S.S.S.H.M.^ X ",
"X X > s d d d p k ^ n Z ^ [ ^ [ ..R R ....} $.$.$.$.$.$.$.:.:.:.8.8.9.9.9.i.F.~.~.~.~.~.~.~.~.~.j.j.S.~.~.~.K.m.m.m.S.S.M.H.C X ",
"X X > s p d d d k ^ n Z [ ^ ^ [ ....} ..} $.$...$.$.$.:.:.:.:.:.8.8.8.9.9.9.H.~.~.~.~.~.~.~.~.~.j.j.S.!.~.~.K.m.m.S.S.S.H.M.C X ",
"X . > s d d d d f ^ n Z ^ [ ^ [ ..R ..} ..} ....$.$.$.$.:.:.:.:.-.8.9.9.9.i.M.~.~.~.~.~.~.~.~.~.j.j.S.!.~.~.K.m.m.m.F.M.M.H.C X ",
"X X * f f s f s Z T Z Z ^ ^ [ [ [ ........:.$.$.$.$.$.:.:.:.:.1.9.9.i.9.i.i.H.~.(.~.(.~.(.~.~.~.j.c.F.~.~.~.Y.M.M.F.S.S.F.F.^ X ",
"$ X 1 f f f d d f T k Z T ^ T ^ ^ ^ ^ ^ R R [ [ ....} ..$.} $...$.$.-.-.-.$.c.Y.Y.Y.Y.Y.Y.Y.Y.Y.9.i.j.R.Y.R.M.j.j.S.S.S.F.F.R $ ",
"X X X X X X X X X X ; > * * * $ , * , , 6 , , 6 6 , 6 6 6 6 6 6 6 6 6 q t q q y r r q y r q t t y q t t t q t $ X X X X X X . . ",
"              X X > p p p p d p F k Z T T T R ^ ^ [ R R R } } } ......H.H.H.H.H.H.H.H.H.M.9.9.S.H.H.H.i.i.i.j.t X               ",
"              X X 1 s s s s s s ^ n M [ [ ......$...$.$.:.:.:.1.:.9.i.~.~.~.(.(.(.~.(.(.!.j.c.!.~.~.~.F.F.F.F.y X               ",
"              X X 1 s s s s s s ^ n M [ [ [ R ......$.$.$.:.:.:.:.9.9.~.!.~.~.~.~.!.~.~.R.j.j.!.~.~.~.M.S.F.S.y X               ",
"              X X 1 s s s s s s ^ n M [ ..R ..$...$.$.$.$.:.:.:.8.8.9.~.~.~.~.~.~.~.~.~.!.j.j.!.~.~.~.M.S.S.S.y X               ",
"              X X 1 s s s s s s ^ k M [ ....} ....$.$.$.$.$.:.:.8.9.9.~.~.~.~.~.~.~.~.~.R.j.c.!.~.~.~.M.S.S.S.y X               ",
"              X X 1 d d s s s s ^ n A [ [ ..R ....$.$.$.$.:.:.:.8.8.9.~.~.~.~.~.~.~.~.~.!.j.j.!.~.~.!.m.S.S.F.y X               ",
"              X X 1 d d s s s s ^ Z Z [ [ [ $...$.....$.$.:.:.:.8.8.9.~.~.~.~.~.~.~.~.~.R.j.j.!.~.~.!.S.S.S.F.y X               ",
"              X X 1 d p s s s s ^ n A [ ......} ..$.$.$.$.:.:.:.8.8.8.~.~.~.~.~.~.~.~.~.!.j.c.!.~.~.!.S.S.S.F.y X               ",
"              X X 1 s s s s s s ^ n A [ R ..} ......$.$.:.:.:.:.-.8.9.~.~.~.~.~.~.~.~.~.R.j.j.!.~.~.!.m.S.S.F.y X               ",
"              X X 1 s s s s s s ^ k A [ [ [ ..} ..$...$.$.:.:.1.8.8.9.~.~.~.~.~.~.~.~.~.R.c.j.!.~.~.~.S.S.S.S.y X               ",
"              X X 1 s s s s s s ^ Z Z [ [ [ } ....$.$.$.$.:.:.:.8.8.9.~.~.~.~.~.~.~.~.~.R.j.j.!.~.~.!.S.S.F.F.y X               ",
"              X X 1 s s s s s s ^ n Z [ [ [ ........$.$.$.$.:.:.8.8.9.~.~.~.~.~.~.~.~.~.!.j.c.!.~.~.!.S.H.M.H.y X               ",
"              X X 1 s s s s s s ^ n A [ [ ..[ ....$.$.$.:.:.:.:.8.8.9.~.~.~.~.~.~.~.~.~.R.j.j.!.~.!.!.m.M.M.H.y X               ",
"              X X 1 s s s s s s ^ n M [ [ } ..} ....$.$.$.:.:.1.8.8.9.~.~.~.~.~.~.~.~.~.!.j.j.!.~.~.~.M.S.S.S.y X               ",
"              X X 1 s s s s s s ^ n A [ [ ..} ..$.$...$.$.:.:.:.-.8.9.~.~.~.~.~.~.~.~.~.R.j.j.!.~.~.~.M.S.S.S.y X               ",
"              X X 1 s s s s s s ^ k M [ [ [ ..} ..$.$.$.$.:.:.:.8.8.8.~.~.~.~.~.~.~.~.~.!.j.c.!.~.~.~.M.S.S.F.y X               ",
"              X X 1 s s s s s s ^ n M ..R ..} ......$.$.$.:.:.:.8.8.8.!.~.~.~.~.~.~.~.~.R.j.j.!.~.~.~.S.S.S.F.y X               ",
"              X X 1 s s s s s s ^ n A [ ..........$.$.$.:.:.:.:.8.8.9.~.~.~.~.~.~.~.~.~.R.c.j.!.~.~.~.S.S.S.F.y X               ",
"              X X 1 s s s s s s ^ n Z [ R ..R $.$.....$.$.$.:.:.8.8.9.~.~.~.~.~.~.~.~.~.R.j.j.!.~.~.!.m.S.S.F.y X               ",
"              X X 1 s s s s s s ^ n A [ ......} ..$.$.$.:.:.:.:.8.8.9.~.~.~.~.~.~.~.~.~.!.j.j.!.~.~.~.S.S.S.S.y X               ",
"              X X 1 s s s s s s ^ n A [ R ..} ......$.$.$.:.:.1.8.8.9.~.~.~.~.~.~.~.~.~.R.j.j.!.~.~.~.S.m.S.S.y X               ",
"              X X 1 s s s s s s ^ k A [ [ [ ......$...$.$.:.:.:.8.8.8.~.~.~.~.~.~.~.~.~.!.j.j.!.~.~.!.m.S.S.F.y X               ",
"              X X 1 s s s s s s ^ Z Z [ [ [ ......$.$.$.$.:.:.:.-.8.9.~.~.~.~.~.~.~.~.~.R.j.c.!.~.~.!.S.S.S.F.y X               ",
"              X X 1 s s s s s s ^ n Z [ ..R [ ....$.$.$.$.:.:.:.8.8.9.~.~.~.~.~.~.~.~.~.!.j.j.!.~.~.!.S.S.S.S.y X               ",
"              X X 1 s s s s s s ^ n A [ ....} ......$.$.$.:.:.:.8.8.9.~.~.~.~.~.~.~.~.~.R.j.c.!.~.~.!.m.S.S.S.y X               ",
"              X X 1 s s d p d p ^ n M [ [ ..R $...$...$.$.:.:.:.8.8.9.~.~.~.~.~.~.~.~.~.!.j.j.!.~.~.~.S.S.S.S.y X               ",
"              X X 1 s s d d d d ^ n A [ [ [ ......$.$.$.:.:.:.:.8.8.9.~.~.~.~.~.~.~.~.~.R.j.j.!.~.~.!.S.S.S.S.y X               ",
"              X X 1 s s d p d d ^ k M [ R ..} ....$.$.$.$.:.:.1.8.8.8.~.~.~.~.~.~.~.~.~.!.j.c.!.~.~.!.S.S.S.F.y X               ",
"              X X 1 s s s s d d ^ n M [ ..} ..} ....$.$.$.:.:.:.-.8.9.~.~.~.~.~.~.~.~.~.R.j.j.!.~.!.!.m.S.S.F.y X               ",
"              X X 1 s s s s s s ^ k A [ [ ....} ....$.$.$.:.:.:.8.8.9.~.~.~.~.~.~.~.~.~.R.j.j.!.~.~.~.S.S.S.S.y X               ",
"              X X 1 s s s s s s ^ n A [ [ [ } ....$.$.$.$.:.:.:.8.8.9.~.~.~.~.~.~.~.~.~.!.c.j.!.~.~.!.S.S.S.S.y X               ",
"              X X 1 s s s s s s ^ n Z [ [ ..[ ......$.$.$.:.:.1.8.8.9.~.~.~.~.~.~.~.!.~.R.j.j.!.~.~.!.S.S.S.F.y X               ",
"              X X 1 s s s s s s ^ n A [ [ [ ....$.$...$.$.:.:.:.8.8.9.~.~.~.~.~.~.~.!.!.!.j.j.!.~.!.!.m.S.S.F.y X               ",
"              X X 1 s s s s s s ^ n M [ R ....} ..$.$.$.$.:.:.:.8.8.8.~.~.~.~.~.~.~.~.~.R.j.j.!.~.~.!.S.S.S.F.y X               ",
"              X X 1 s s s s s s ^ k A [ ..[ } ......$.$.$.$.:.:.-.8.9.~.~.~.~.~.~.~.~.~.!.j.c.!.~.~.!.m.S.S.F.y X               ",
"              X X 1 s s s s s s ^ n M [ [ ....} ..$.$.$.:.:.:.:.8.8.9.~.~.~.~.~.~.~.~.~.R.j.j.!.~.~.~.S.S.S.S.y X               ",
"              X X 1 s s s s s s ^ n M [ [ [ } ..$.....$.$.:.:.:.8.8.9.~.~.~.~.~.~.~.~.~.!.j.j.!.~.~.~.S.m.S.S.y X               ",
"              X X 1 s s s s s s ^ n Z [ [ [ ..} ....$.$.$.:.:.1.8.8.9.~.~.~.~.~.W.(.W.(.Y.j.c.!.~.~.!.m.S.S.F.y X               ",
"              X X 1 s s s s s s ^ n A [ [ [ } ..$.$...$.$.:.:.:.8.8.9.~.~.~.~.~.(.W.(.W.Y.c.j.!.~.~.!.S.S.F.F.y X               ",
"              X X 1 s s s s s s ^ n M ^ [ ..[ ....$.$.$.$.:.:.:.8.8.8.~.~.~.~.~.W.(.W.(.!.j.c.!.~.~.!.S.S.S.F.y X               ",
"              X X 1 s s s s s s ^ n A [ [ [ ........$.$.$.:.:.:.-.8.9.~.~.~.~.~.(.W.(.W.R.j.j.!.~.~.!.m.S.S.F.y X               ",
"              X X 1 d d s s s s ^ n Z [ R ..} ......$.$.$.:.:.:.8.9.:.(.!.~.~.~.(.W.W.(.Y.j.j.W.!.~.~.S.S.S.S.y X               ",
"              X X 1 d f s f f s [ n A ..$.} ....$.$.$.$.$.:.:.1.8.1.1.(.~.(.(.~.(.(.(.(.(.c.c.(.~.(.~.S.F.F.F.y X               ",
"              X * 0 f k k f f Z [ M M ........$.^ [ [ [ ..} ......$...V.H.M.H.M.Y.Y.K.Y.K.h.c.K.Y.Y.R.M.M.H.M.i X               ",
"                                                , 6 , 6 6 , 6 6 6 6 6 6 6 q 6 6                                                 "
};
