/* XPM */
static char *cbcd21e4e6954f5fd16723641eef00302FTbm1751RZKiaLF[] = {
/* columns rows colors chars-per-pixel */
"16 16 102 2 ",
"   c None",
".  c #211612",
"X  c #231613",
"o  c #241814",
"O  c #2D1C17",
"+  c #301F1A",
"@  c #311F1A",
"#  c #2F201A",
"$  c #32201A",
"%  c #32201B",
"&  c #36231D",
"*  c #37251F",
"=  c #38241E",
"-  c #39261F",
";  c #3D251F",
":  c #3A2620",
">  c #3F2923",
",  c #462A23",
"<  c #412C24",
"1  c #452D26",
"2  c #472F26",
"3  c #472F27",
"4  c #482E26",
"5  c #4B3128",
"6  c #4B3129",
"7  c #513128",
"8  c #51352D",
"9  c #52362D",
"0  c #55362C",
"q  c #59362B",
"w  c #55382F",
"e  c #57392F",
"r  c #593A30",
"t  c #5B3C31",
"y  c #5A3C32",
"u  c #5D3C31",
"i  c #5E3D33",
"p  c #5F3E32",
"a  c #5E3E33",
"s  c #5F3F34",
"d  c #603D32",
"f  c #623E33",
"g  c #634135",
"h  c #634136",
"j  c #634236",
"k  c #684236",
"l  c #6D4437",
"z  c #6A463A",
"x  c #6B473A",
"c  c #6B473B",
"v  c #6C473B",
"b  c #72483B",
"n  c #76483A",
"m  c #754B3E",
"M  c #7E5142",
"N  c #834F40",
"B  c #835242",
"V  c #865241",
"C  c #815445",
"Z  c #815545",
"A  c #815446",
"S  c #86594A",
"D  c #895A4A",
"F  c #8F5F4E",
"G  c #905846",
"H  c #985B4B",
"J  c #91604F",
"K  c #936250",
"L  c #956251",
"P  c #986251",
"I  c #9A6554",
"U  c #9C6755",
"Y  c #AD6955",
"T  c #AE6955",
"R  c #B7705A",
"E  c #B1765F",
"W  c #B57863",
"Q  c #B97963",
"!  c #B87A64",
"~  c #BC7C66",
"^  c #BD7C67",
"/  c #BE7D67",
"(  c #C2765F",
")  c #C5816B",
"_  c #CB856E",
"`  c #CB866E",
"'  c #CC866F",
"]  c #D9876C",
"[  c #E18C71",
"{  c #E18E74",
"}  c #E39075",
"|  c #E49278",
" . c #E1947A",
".. c #E69479",
"X. c #E5977C",
"o. c #E5977D",
"O. c #E8967B",
"+. c #E6987D",
"@. c #E9987E",
"#. c #EB9A7F",
"$. c #EA9B80",
"%. c #EB9B80",
/* pixels */
"        e 2           ; d       ",
"      5 #.F X       o G %.d     ",
"      t W V _ ' ' ' J T #.z     ",
"      h X.a $ = = = . ( #.W     ",
"      v %.S         O ] #.1     ",
"      A P d a s s s $ [ $.*     ",
"      U m B A A A A 2 {  .#     ",
"      W %.w         7 } '       ",
"      ' ~ :         q | W       ",
"    $ ~ n Q ~ ~ ~ ~ k ..U       ",
"    9 +.M * < < < > l O.A       ",
"      %.o.@         B @.x       ",
"    9 ) b 3 r r r 1 H $.h       ",
"    r I B K L L L v T %.t       ",
"    a %.D           R $.5       ",
"      j :           , 0         "
};
