/* XPM */
static char *_b668bd4dd44408581adbd3869c5e4a9dWM6UlDFFBIlAgpb[] = {
/* columns rows colors chars-per-pixel */
"64 64 214 2 ",
"   c None",
".  c black",
"X  c #010000",
"o  c #010101",
"O  c #020000",
"+  c #030000",
"@  c #000202",
"#  c #020202",
"$  c #040000",
"%  c #050000",
"&  c #040303",
"*  c #040404",
"=  c gray2",
"-  c #060606",
";  c #000C0C",
":  c #090909",
">  c #1B0000",
",  c #1D0000",
"<  c #1E0000",
"1  c #001212",
"2  c #151515",
"3  c #161616",
"4  c #191919",
"5  c gray10",
"6  c gray11",
"7  c #1D1D1D",
"8  c #1E1E1E",
"9  c gray12",
"0  c #220000",
"q  c #2A0000",
"w  c #220D0D",
"e  c #310000",
"r  c #320101",
"t  c #202020",
"y  c #222222",
"u  c gray14",
"i  c gray15",
"p  c #2F2F2F",
"a  c #323232",
"s  c #570000",
"d  c #6B0000",
"f  c #710000",
"g  c #772929",
"h  c #414141",
"j  c #434343",
"k  c gray28",
"l  c #464D4D",
"z  c #494949",
"x  c gray29",
"c  c #4B4B4B",
"v  c #4D4E4E",
"b  c #4E4E4E",
"n  c gray32",
"m  c #565656",
"M  c #5A5A5A",
"N  c gray43",
"B  c #767676",
"V  c #850000",
"C  c #860000",
"Z  c #910000",
"A  c #920000",
"S  c #B10000",
"D  c #B10101",
"F  c #B30000",
"G  c #B60000",
"H  c #B11A1A",
"J  c #B11B1B",
"K  c #A72C2C",
"L  c #A93C3C",
"P  c #C50000",
"I  c #C60000",
"U  c #F10000",
"Y  c #FC0000",
"T  c #FD0000",
"R  c red",
"E  c #FF0101",
"W  c #FC0202",
"Q  c #FE0202",
"!  c #FF0303",
"~  c #FF0404",
"^  c #FF0606",
"/  c #FF0808",
"(  c #FF0909",
")  c #FC0B0B",
"_  c #FF0A0A",
"`  c #FF0B0B",
"'  c #FF0D0D",
"]  c #FF1010",
"[  c #FF1212",
"{  c #FF1414",
"}  c #FF1818",
"|  c #FF1919",
" . c #FF1A1A",
".. c #FF1B1B",
"X. c #FF1C1C",
"o. c #FF1D1D",
"O. c #FF1E1E",
"+. c #FF1F1F",
"@. c #FF2222",
"#. c #FF2828",
"$. c #FC2B2B",
"%. c #FF2A2A",
"&. c #FF2B2B",
"*. c #FF2C2C",
"=. c #FF2D2D",
"-. c #FF3131",
";. c #FF3232",
":. c #FF3333",
">. c #FF3535",
",. c #FF3737",
"<. c #FF3A3A",
"1. c #FE3C3C",
"2. c #FF3D3D",
"3. c #FF5151",
"4. c #FF5D5D",
"5. c #FF6161",
"6. c #FF6565",
"7. c #FF6666",
"8. c #FF6868",
"9. c #FF6A6A",
"0. c #FF6C6C",
"q. c #FF6E6E",
"w. c #FF6F6F",
"e. c #FC7070",
"r. c #FF7070",
"t. c #FF7373",
"y. c #FF7474",
"u. c #FF7575",
"i. c #898989",
"p. c gray54",
"a. c #939393",
"s. c gray58",
"d. c gray62",
"f. c #9F9F9F",
"g. c #B08080",
"h. c #B19696",
"j. c #B19D9D",
"k. c #A2A2A2",
"l. c #A4A4A4",
"z. c gray66",
"x. c #B1B0B0",
"c. c #B1B1B1",
"v. c gray70",
"b. c #B1B6B6",
"n. c #B1B7B7",
"m. c #C58888",
"M. c #FF8585",
"N. c #FF8686",
"B. c #F18989",
"V. c #FF8989",
"C. c #FC8C8C",
"Z. c #FF8C8C",
"A. c #FF8E8E",
"S. c #FF8F8F",
"D. c #FF9191",
"F. c #FF9292",
"G. c #FF9393",
"H. c #FF9797",
"J. c #FF9A9A",
"K. c #FF9D9D",
"L. c #E3A2A2",
"P. c #FFA9A9",
"I. c #FFABAB",
"U. c #FFAFAF",
"Y. c #FFB4B4",
"T. c #FFB6B6",
"R. c #FFBABA",
"E. c #C5C5C5",
"W. c #C6C6C6",
"Q. c gray80",
"!. c #CDCDCD",
"~. c gray81",
"^. c #C7D4D4",
"/. c #D0D0D0",
"(. c #D4D1D1",
"). c #D5D5D5",
"_. c gray85",
"`. c gray86",
"'. c #DFDFDF",
"]. c #FFC4C4",
"[. c #FFCCCC",
"{. c #FFCDCD",
"}. c #FFD1D1",
"|. c #FDD4D4",
" X c #FFD9D9",
".X c #E6E6E6",
"XX c #EAEAEA",
"oX c #EFEFEF",
"OX c #FFE3E3",
"+X c #FFE8E8",
"@X c #FFEBEB",
"#X c #F1F1F1",
"$X c gray95",
"%X c #F3F3F3",
"&X c #F6F6F6",
"*X c #FFF1F1",
"=X c #FFF4F4",
"-X c #FFF5F5",
";X c #FBF9F9",
":X c gray98",
">X c #FBFBFB",
",X c #FFF8F8",
"<X c #FFF9F9",
"1X c snow",
"2X c #FFFBFB",
"3X c #FBFCFC",
"4X c gray99",
"5X c #FDFDFD",
"6X c #FFFCFC",
"7X c #FFFDFD",
"8X c #FDFFFF",
"9X c #FEFEFE",
"0X c #FFFEFE",
"qX c white",
/* pixels */
"                                                                                                                                ",
"                                                                                                                                ",
"                                                                                                                                ",
"                                                                                                                                ",
"                                                                                                                                ",
"                                                                                                                                ",
"                                        o o o o o o o o o o o o o o o o o o o o o o                                             ",
"                                        0 0 0 0 0 0 0 0 0 0 0 0 0 0 w y y y y y y y                                             ",
"                                        o o o o o o o o o o o o o o o o o o o o o o                                             ",
"                        o o o o o o o r U U U U U U U U U U U U U U B.#X#X#X#X#X#X.Xo o o o o o o                               ",
"                        o o o o o o o r R R R R R R R R R R R R R R F.9X9X9X9X9X9X&Xo o o o o o o                               ",
"                        o o o o o o o q R R R R R R R R R R R R R R F.9X9X9X9X9X9X#Xo o o o o o o                               ",
"                  o o o i.f.f.f.f.f.f.g.R R R R R R R R R R R R R R F.9X9X9X9X9X9X>Xk.f.f.f.k.f.f.5 o o o                       ",
"                  i i i (.9X9X9X9X9X9X}.R R R R R R R R R R R R R R S.9X9X9X9X9X9X9X9X9X9X9X9X9X9Xa i i i                       ",
"                  o o o ^.9X9X9X8X8X9X|.R R R R R R R R R R R R R R H.9X9X9X9X9X9X9X9X9X9X9X9X9X9Xo o o o                       ",
"                h k.k.k.L.].].].].].].K.R R R R R R R R R R R R R R q.].].].2X9X9X9X9X9X9X9X9X9X9Xk.k.k.f.                      ",
"          o o o n 9X9X9XR R R R R R R R R R R R R R R R R R R R R R R R R R *X9X9X9X9X9X9X9X9X9X9X9X9X9X>Xo o o o               ",
"          o o o b 9X9X9X1.=.&.=.&.=.=.@.&.#.#.&.#.&.&.#.#.&.#.&.&.&. .=.=.=.*X9X9X9X9X9X9X9X9X9X9X9X9X9X>Xo o o o               ",
"          o o o b 9X9X9X:.R R R R R R R R R R R R R R R R R R R R R R R R R -X9X9X9X9X9X9X9X9X9X9X9X9X9X>Xo o o o               ",
"          o o o b 9X9X9X:.R R R R R R =.@X@X@X@X@X@X@X@X@X@X@X@X@X@X6.R R R 8.q.q.q.q.q.q.H.9X9X9X9X9X9X>Xo o o o               ",
"          o o % v 9X9X9X:.R R R ~ R ~ >.9X9X9X9X9X9X9X9X9X9X9X9X9X9Xr.~ R ~ R R R R R R R 5.9X9X9X9X9X9X9Xo o o o               ",
"          o o o l 9X9X9X:.R R R R R R X.9X9X9X9X9X9X9X9X9X9X9X9X9X9X8.R R R [ [ [ [ [ [ [ q.9X9X9X9X9X9X>Xo o o o               ",
"          V V V K S.S.S.X.R R R V.N.N.J.9X9X9X9X9X9X9X9X9X9X9X9X9X9XT.N.N.N.~ R R R R R R 1.S.S.S.S.S.S.V.V V V d               ",
"  o o o % R R R R R R R R R R R 9X9X9X9X9X9X9X9X9X9X9X9X9X9X9X9X9X9X9X9X9X9X' R R R R R R R R R R R R R R R R R G o o o         ",
"  o o o % R Y R R [ [ ' R R R R 9X9X9X9X9X9X9X9X9X9X9X9X9X9X9X9X9X9X9X9X9X9X' R R R R R R R R R R R R R R Y R R S o o o         ",
"  o o o % R R R R R R R R R R R 9X9X9X9X9X9X9X9X9X9X9X9X9X9X9X9X9X9X9X9X9X9X' R R R R R R <.S.V.S.V.S.V.V.R R R S o o o         ",
"  o o o o R R R R R R R R R R R 9X9X9X9X9X9X9X9X9X9X9X9X9X9X9X9X9X9X9X9X9X9X' R R R R R R q.2X2X-X2X2X2X-XR R R S o o o         ",
"  o o o % =.=.=.X.R R R R R R R 9X9X9X9X9X9X9X9X9X9X9X9X9X9X9X9X9X9X9X9X9X9X' R R R =.=.=.u.9X9X9X9X9X9X9X=.=.=.J o o o         ",
"  o o o o R R R R R R R R R R R 9X9X9X9X9X9X9X9X9X9X9X9X9X9X9X9X9X9X9X9X9X9X' R R R R R R 3.9X9X9X9X9X9X2XR R R S o o o         ",
"  o o o % OXOXOXK.R R R R R R R 9X9X9X9X9X9X9X9X9X9X9X9X9X9X9X9X9X9X9X9X9X9X' R R ` OXOXOX@X9X9X9X9X9X9X9XOXOXOXj.o o o         ",
"  o o o = 9X9X9XT.~ ~ ~ R R R R 9X9X9X9X9X9X9X9X9X9X9X9X9X9X9X9X9X9X9X9X9X9X' R R ' 9X9X9X9X9X9X9X9X9X9X9X9X9X9Xb.o o o         ",
"  o o o * 9X9X9XU.R R R R R R R 9X9X9X9X9X9X9X9X9X9X9X9X9X9X9X9X9X9X9X9X9X9X' R R ' 9X9X9X9X9X9X9X9X9X9X9X9X9X9Xx.o o o         ",
"  o o o = 9X9X9X{.8.q.8.{ R R R I.I.U.R.9X9X9X9X9X9X9X9X9X9X9X9X9X9X{.I.I.I.` R R ' 9X9X9X9X9X9X9X9X9X9X9X9X9X9Xc.o o o         ",
"  o o o = 9X9X9X9X9X9X9X:.R R R R R R  .9X9X9X9X9X9X9X9X9X9X9X9X9X9X6.R R R R R R ' 9X9X9X9X9X9X9X9X9X9X9X9X9X9Xx.o o o         ",
"  o o o = 9X9X9X9X9X9X9X:.R R R ` ` ` >.9X9X9X9X9X9X9X9X9X9X9X9X9X9Xu.` ` ` R R R ' 9X9X9X9X9X9X9X9X9X9X9X9X9X9Xb.o o o         ",
"  o o o = 9X9X9X9X9X9X9X:.R R R R R R &. X X X X X X X X X X X X X X4.R R R R R R `  X X XOX9X9X9X9X9X9X9X X X Xh.o o o         ",
"  o o o = 9X9X9X9X9X9X9X:.R R R R R R R R R R R R R R R R R R R R R R R R R R R R R R R R 6.9X9X9X9X9X9X2XR R R S o o o         ",
"  o o o = 9X9X9X9X9X9X9X:.R R R R Y Y Y $.=.$.$.=.$.$.$.$.&.$.$.$.$.) R R Y Y Y Y R $.$.$.q.9X9X9X9X9X9X2X&.=.=.J o o o         ",
"  o o o = 9X9X9X9X9X9X9X>.R R R R R R R ~ R ~ ~ R ~ R ~ ~ ~ ~ R ~ R R R R R R R R R ~ R ~ u.9X9X9X9X9X9X9XR ~ R S o o o         ",
"  o o o = 9X9X9X{.F.F.F. .R R R Z Z Z Z Z Z Z Z Z Z Z Z Z Z Z Z Z Z Z Z Z Z Z Z Z Z Z Z Z L F.H.F.F.F.F.S.R R R S o o o         ",
"  o o o o 9X9X9XI.R R R R R R R o * o o o o o o o o o o o o o o * o o o o o o o o o o o o s R R R R R R R R R R S o o o         ",
"  o o o = 9X9X9XT.X.X.X.R R R R o o o o o o o , , , , o o o o o o o > , , , % o o o o o o f X.X.X.@.X.X.X.R R R S o o o         ",
"  o o o = W.W.W.m.P P P P P P P c v c c c c c 3 o o o c c c c v c c 9 o o o k b c c c c c g P P P P P P P P P P Z o o o         ",
"          o o o o o o o ; 1 1 1 9X9X9X9X9X9X9Xb o o o >X9X9X9X9X9X9XN o o o #X9X9X9X9X9X9Xa.1 1 1 o o o o o o o o               ",
"          o o o o o o o o o o o 9X9X9X9X9X9X9Xb o o o >X9X9X9X9X9X9XN o o o #X9X9X9X9X9X9Xi.o o o o o o o o o o o               ",
"          o o o o o o o h m m n 9X9X9X9X9X9X9Xb o o o >X9X9X9X9X9X9XN o o o #X9X9X9X9X9X9Xz.m n m = o o o o o o o               ",
"                  o o o c..X.X'.9X9X9X9X9X9X9Xb o o o >X9X9X9X9X9X9XN o o o #X9X9X9X9X9X9X&X'..X'.3 o o o                       ",
"                  o o o ~.9X9X9X9X9X9X9X9X9X9XM p p p 9X9X9X9X9X9X9XB a p p #X9X9X9X9X9X9X9X9X9X9X9 o o o                       ",
"                  o o o Q.>X9X9X9X9X9X9X9X9X9Xo o o o >X9X9X9X9X9X9Xc o o o #X9X9X9X9X9X9X9X9X9X9X5 o o o                       ",
"                  o o o ~.9X9X9X9X9X9X9X9X9X9X).(.~.~.9X9X9X9X9X9X9X_.(.~.~.9X9X9X9X9X9X9X9X9X9X9X9 o o o                       ",
"                  o o o ~.9X9X9X9X9X9X9X9X9X9X9X9X9X9X9X9X9X9X9X9X9X9X9X9X9X9X9X9X9X9X9X9X9X9X9X9X9 o o o                       ",
"                  o o o ~.9X9X9X9X9X9X9X9X9X9X9X9X9X9X9X9X9X9X9X9X9X9X9X9X9X9X9X9X9X9X9X9X9X9X9X9X5 o o o                       ",
"                  o o o c.`.`.`.9X9X9X9X9X9X9X9X9X9X9X9X9X9X9X9X9X9X9X9X9X9X9X9X9X9X9X9X9X#X`.`.`.9 o o o                       ",
"                        3 5 5 5 9X9X9X9X9X9X9X9X9X9X9X9X9X9X9X9X9X9X9X9X9X9X9X9X9X9X9X9X9Xs.5 5 5                               ",
"                        o o o o 9X9X9X9X9X9X9X9X9X9X9X9X9X9X9X9X9X9X9X9X9X9X9X9X9X9X9X9X9Xa.o o o                               ",
"                        o o o o XXXXXXXXXXXXXXXXXXXXXXXXXXXXXXXXXXXXXXXXXXXXXXXXXXXXXXXXXXi.o o o                               ",
"                                o o o o o o o o o o o o o o o o o o o o o o o o o o o o o 9                                     ",
"                                9 9 9 9 9 9 9 9 9 9 9 9 9 9 9 9 9 9 9 9 9 9 9 9 9 9 9 9 9 :                                     ",
"                                : : : : = : : : = : : : = : : : : : : : : : = : : : : : = =                                     ",
"                                                                                                                                ",
"                                                                                                                                ",
"                                                                                                                                ",
"                                                                                                                                ",
"                                                                                                                                "
};
