/* XPM */
static char *_b0281cbd90e41fda642b9fc12ed06c1dvady7ULVggMZyQI[] = {
/* columns rows colors chars-per-pixel */
"16 16 34 1 ",
"  c None",
". c #010000",
"X c #7F4716",
"o c #604124",
"O c #634325",
"+ c #76502C",
"@ c #9F0000",
"# c #CF1B08",
"$ c red",
"% c #FF0402",
"& c #FF2716",
"* c #804716",
"= c #814817",
"- c #8A5E34",
"; c #B06D32",
": c #BA7538",
"> c #BA7638",
", c #FF4124",
"< c #B27943",
"1 c #B37943",
"2 c #CF8644",
"3 c #CF8744",
"4 c #FFA059",
"5 c #FFA65C",
"6 c #FCAB5E",
"7 c #FFAD60",
"8 c #F1DF44",
"9 c #3F51B5",
"0 c #4F4AA6",
"q c #5548A0",
"w c #4755B1",
"e c #4152B4",
"r c #4758B0",
"t c #6B66A1",
/* pixels */
"                ",
"     $$$$$      ",
"    ###,,@,$$   ",
"    :=>77.7     ",
"   X6=>77-+677  ",
"    ;2277O.OO   ",
"     7777<<     ",
"    $&t&&t&$    ",
"   $$$9$$9$$$   ",
"  $$$$9qq9$$$$  ",
"  44%089980%44  ",
"  775er99re577  ",
"  77w999999w77  ",
"    999  999    ",
"   X**    **X   ",
"  X***    ***X  "
};
