/* XPM */
static char *_fbccc39df134a6ca28cfc95925ff9b6dFUCUxAmrt4AddUv[] = {
/* columns rows colors chars-per-pixel */
"64 64 64 1 ",
"  c None",
". c black",
"X c #010100",
"o c #160000",
"O c #2D1F11",
"+ c #2F2012",
"@ c #312213",
"# c #401D10",
"$ c #4E351E",
"% c #7D471D",
"& c #6C4929",
"* c #75502C",
"= c #744932",
"- c red",
"; c #FA0205",
": c #FF0905",
"> c #FF2A18",
", c #804616",
"< c #804716",
"1 c #8B4114",
"2 c #8B501C",
"3 c #9E5F28",
"4 c #BA7638",
"5 c #BB7739",
"6 c #FF4225",
"7 c #FB4428",
"8 c #C57E3E",
"9 c #972C62",
"0 c #973064",
"q c #FFEB3B",
"w c #BF8248",
"e c #D08745",
"r c #D28E4F",
"t c #FF8449",
"y c #FF854A",
"u c #E89A52",
"i c #E89B53",
"p c #E99E58",
"a c #FF9352",
"s c #F89A55",
"d c #FB9C56",
"f c #FF9E58",
"g c #F4A45A",
"h c #F8A85D",
"j c #FAA95E",
"k c #FBAA5E",
"l c #D19774",
"z c #F5A865",
"x c #FEAC60",
"c c #FEAD60",
"v c #FFAD60",
"b c #FFAE60",
"n c #D4C956",
"m c #DDD051",
"M c #F5E341",
"N c #3F51B5",
"B c #614395",
"V c #4250B3",
"C c #4455B2",
"Z c #9E6B80",
"A c #977B8E",
"S c #827197",
"D c #887495",
"F c #B18881",
/* pixels */
"                                                                ",
"                                                                ",
"                                                                ",
"                    --------------------                        ",
"                    --------------------                        ",
"                    --------------------                        ",
"                 ----------------------------------             ",
"                 ----------------------------------             ",
"                 ----------------------------------             ",
"                 ----------------------------------             ",
"                 11111111111dfffffhsooo@fffa                    ",
"                 <<<<<<<<<<%kvvvkkkjXXXOvvvv                    ",
"                 <<<<<<<<<<<kvvvbvbkXXXOvvvv                    ",
"                 <<<<<<<<<<<kvvvvvkhXXXOvvvv                    ",
"             <<<3kbk4<<<ivvvvvvvvvvhXXXOvvvvvvvvvvv             ",
"             <<<3bbk4<<%ivvvvvvvvvvkXXXOvvvvvvvvvvv             ",
"             <<<3vvv4<<<ivvvvvvvvvvhXXXOvvvvvvvvvvv             ",
"             <<<3vvv4<<<ivvvvvvvvvvhXXXOxxxvvvvvvvv             ",
"             <<<3vvv4<<<<<<<kvvvvvvvvvvrXXX*vvvvvvvvvvv         ",
"             <<<3vvv4<<<<<<<kvvvvvvvvvvrXXX*vvvvvvvvvvv         ",
"             <<<3vvv4<<<<<<<kvvvvvvvvvvrXXX*vvvvvvvvvvv         ",
"             <<<3ggg42222222kvvvvvvvpppwXXX&pppppppvvvv         ",
"                 <<<8vvvvvvvvvvvvvvhXXXXXXXXXXXXXXX             ",
"                 <<<8vvvvvvvvvvvvvvhXXXXXXXXXXXXXXX             ",
"                 <<<8vvvvvvvvvvvvvvhXXXXXXXXXXXXXXX             ",
"                 <<<evvvvvvvvvvvvvvk$$$$$$$@XXXXXXX             ",
"                    bvvvvvvvvvvvvvvvvvvvvvvv                    ",
"                    vvvvvvvvvvvvvvvvvvvvvvvv                    ",
"                    vvvvvvvvvvvvvvvvvvvvvvvv                    ",
"                 --->666ZDDD76666667DDDZ666>---                 ",
"                 -------BNNN;------;NNNB-------                 ",
"                 -------BNNN;------;NNNB-------                 ",
"                 -------BNNN;------;NNNB-------                 ",
"             -----------BNNN;------;NNNB-----------             ",
"             -----------BNNN;------;NNNB-----------             ",
"             -----------BNNN;------;NNNB-----------             ",
"             -----------BNNN;------;NNNB-----------             ",
"         ---------------BNNNVVVVVVVVNNNB---------------         ",
"         ---------------BNNNNNNNNNNNNNNB---------------         ",
"         ---------------BNNNNNNNNNNNNNNB---------------         ",
"         ---------------BNNNNNNNNNNNNNNB---------------         ",
"         vvvvvvvy---9NNNmqqqCNNNNNNCqqqmNNN9---yvvvvvvv         ",
"         vvvvvvvt---9NNNmqqqCNNNNNNCqqqmNNN9---tvvvvvvv         ",
"         vvvvvvvt---9NNNmqqqCNNNNNNCqqqmNNN9---yvvvvvvv         ",
"         vvvvvvvy:::0NNNnMMMCNNNNNNCMMMnNNN0:::yvvvvvvv         ",
"         vvvvvvvvvvvANNNNNNNNNNNNNNNNNNNNNNAvvvvvvvvvvv         ",
"         vvvvvvvvvvvANNNNNNNNNNNNNNNNNNNNNNAvvvvvvvvvvv         ",
"         vvvvvvvvvvvANNNNNNNNNNNNNNNNNNNNNNAvvvvvvvvvvv         ",
"         vvvvvvvzlllSNNNNNNNNNNNNNNNNNNNNNNSlllzvvvvvvv         ",
"         vvvvvvvlNNNNNNNNNNNNNNNNNNNNNNNNNNNNNNlvvvvvvv         ",
"         vvvvvvvlNNNNNNNNNNNNNNNNNNNNNNNNNNNNNNlvvvvvvv         ",
"         vvvvvvvlNNNNNNNNNNNNNNNNNNNNNNNNNNNNNNlvvvvvvv         ",
"                FNNNNNNNNNNN        NNNNNNNNNNNF                ",
"                 NNNNNNNNNNN        NNNNNNNNNNN                 ",
"                 NNNNNNNNNNN        NNNNNNNNNNN                 ",
"                 NNNNNNNNNNN        NNNNNNNNNNN                 ",
"             <<<%=======                =======%<<<             ",
"             <<<<<<<<<<<                <<<<<<<<<<<             ",
"             <<<<<<<<<<<                <<<<<<<<<<<             ",
"             <<<<<<<<<<<                <<<<<<<<<<<             ",
"         <<<<<<<<<<<<<<<                <<<<<<<<<<<<<<<         ",
"         <<<<<<<<<<<<<<<                <<<<<<<<<<<<<<<         ",
"         <<<<<<<<<<<<<<<                <<<<<<<<<<<<<<<         ",
"         <<<<<<<<<<<<<<<                <<<<<<<<<<<<<<<         "
};
