/* XPM */
static char *_2e69a71855b4ff1af6ff712ed0c58c9onW9DMYyHmw2pTqJ[] = {
/* columns rows colors chars-per-pixel */
"16 16 72 1 ",
"  c None",
". c black",
"X c #070000",
"o c #080000",
"O c #070017",
"+ c #080017",
"@ c #0D051B",
"# c #130D1E",
"$ c #140E1F",
"% c #140F1F",
"& c #151020",
"* c #171122",
"= c #161222",
"- c #171222",
"; c #171322",
": c #171223",
"> c #32395E",
", c #373E63",
"< c #38426C",
"1 c #3A436C",
"2 c #3A446E",
"3 c #3B446F",
"4 c #3B456F",
"5 c #3E4770",
"6 c #3F4871",
"7 c #404973",
"8 c #404974",
"9 c #454F7D",
"0 c #464F7D",
"q c #47507D",
"w c #4A517A",
"e c #4B527B",
"r c #4C547D",
"t c #555B80",
"y c #555B81",
"u c #575F8A",
"i c #5B638B",
"p c #5E658E",
"a c #5E658F",
"s c #616995",
"d c #626A96",
"f c #656C94",
"g c #646C97",
"h c #656C97",
"j c #666D96",
"k c #686F99",
"l c #69709A",
"z c #6A719B",
"x c #7D83A6",
"c c #7D83A7",
"v c #7E83A6",
"b c #7F84A7",
"n c #8186A8",
"m c #8F94B2",
"M c #9094B3",
"N c #9195B4",
"B c #9196B4",
"V c #9196B5",
"C c #9296B5",
"Z c #9EA2BC",
"A c #A0A4BE",
"S c #9FA4C0",
"D c #A0A4C0",
"F c #A1A5C0",
"G c #A2A6C1",
"H c #A2A6C2",
"J c #A3A7C2",
"K c #A4A8C3",
"L c #A5A8C3",
"P c #A5A9C3",
"I c #A6A9C4",
"U c #A7AAC5",
/* pixels */
"    &@O+++@%    ",
"   .emZZZGme.   ",
"  .wBGKKGKGBe.  ",
" .wBGKGGGKKGBe. ",
"#yBGKGGKKGLGHBy#",
"$hGLGKKGGKGLKKg&",
"&rbGKLGKKGGKGve&",
"&2qvGKKGGKKGv01:",
"&55qnAULKUSb055&",
":662qnCMBBb9185:",
":688<udsdgu<865:",
":,662alkkka586,:",
" o,84alkkli58,o ",
"  X,2allkza5,X  ",
"   o>ihfdhi>o   ",
"    ;&$##$&:    "
};
