/* XPM */
static char *_c075542d9af48e9e1a9a93fd4711215iA4Qgu3AyZ9rmT7M[] = {
/* columns rows colors chars-per-pixel */
"64 64 5 1 ",
"  c None",
". c black",
"X c #383818",
"o c #787040",
"O c #C8A860",
/* pixels */
"                                                                ",
"                                                                ",
"                                                                ",
"                                                                ",
"                        XXXXXXXXXXXX                            ",
"                        XXXXXXXXXXXX                            ",
"                        XXXXXXXXXXXX                            ",
"                        XXXXXXXXXXXX                            ",
"                XXXXXXXXXXXXOOOOOOOOXXXXXXXX                    ",
"                XXXXXXXXXXXXOOOOOOOOXXXXXXXX                    ",
"                XXXXXXXXXXXXOOOOOOOOXXXXXXXX                    ",
"                XXXXXXXXXXXXOOOOOOOOXXXXXXXX                    ",
"            XXXXXXXXXXXXOOOOOOOOOOOOOOOOooooXXXX                ",
"            XXXXXXXXXXXXOOOOOOOOOOOOOOOOooooXXXX                ",
"            XXXXXXXXXXXXOOOOOOOOOOOOOOOOooooXXXX                ",
"            XXXXXXXXXXXXOOOOOOOOOOOOOOOOooooXXXX                ",
"        XXXXooooOOOOXXXXOOOOOOOOOOOOooooooooXXXX....            ",
"        XXXXooooOOOOXXXXOOOOOOOOOOOOooooooooXXXX....            ",
"        XXXXooooOOOOXXXXOOOOOOOOOOOOooooooooXXXX....            ",
"        XXXXooooOOOOXXXXOOOOOOOOOOOOooooooooXXXX....            ",
"        XXXXXXXXOOOOOOOOooooOOOOooooOOOOXXXX....oooo....        ",
"        XXXXXXXXOOOOOOOOooooOOOOooooOOOOXXXX....oooo....        ",
"        XXXXXXXXOOOOOOOOooooOOOOooooOOOOXXXX....oooo....        ",
"        XXXXXXXXOOOOOOOOooooOOOOooooOOOOXXXX....oooo....        ",
"    XXXXoooo....ooooOOOOOOOOXXXXXXXX........XXXXXXXX....        ",
"    XXXXoooo....ooooOOOOOOOOXXXXXXXX........XXXXXXXX....        ",
"    XXXXoooo....ooooOOOOOOOOXXXXXXXX........XXXXXXXX....        ",
"    XXXXoooo....ooooOOOOOOOOXXXXXXXX........XXXXXXXX....        ",
"    ....XXXX....XXXXooooOOOOooooOOOOooooXXXXooooooooXXXX....    ",
"    ....XXXX....XXXXooooOOOOooooOOOOooooXXXXooooooooXXXX....    ",
"    ....XXXX....XXXXooooOOOOooooOOOOooooXXXXooooooooXXXX....    ",
"    ....XXXX....XXXXooooOOOOooooOOOOooooXXXXooooooooXXXX....    ",
"    ....ooooOOOOXXXXXXXXooooOOOOoooo....oooooooooooo........    ",
"    ....ooooOOOOXXXXXXXXooooOOOOoooo....oooooooooooo........    ",
"    ....ooooOOOOXXXXXXXXooooOOOOoooo....oooooooooooo........    ",
"    ....ooooOOOOXXXXXXXXooooOOOOoooo....oooooooooooo........    ",
"    ....XXXXooooOOOOXXXXOOOOooooXXXX....XXXXoooo....XXXX....    ",
"    ....XXXXooooOOOOXXXXOOOOooooXXXX....XXXXoooo....XXXX....    ",
"    ....XXXXooooOOOOXXXXOOOOooooXXXX....XXXXoooo....XXXX....    ",
"    ....XXXXooooOOOOXXXXOOOOooooXXXX....XXXXoooo....XXXX....    ",
"    ....XXXXXXXXXXXX....XXXXXXXXoooooooo....XXXXXXXXXXXX....    ",
"    ....XXXXXXXXXXXX....XXXXXXXXoooooooo....XXXXXXXXXXXX....    ",
"    ....XXXXXXXXXXXX....XXXXXXXXoooooooo....XXXXXXXXXXXX....    ",
"    ....XXXXXXXXXXXX....XXXXXXXXoooooooo....XXXXXXXXXXXX....    ",
"    ....XXXXXXXX........XXXXooooXXXXXXXX........XXXXXXXX....    ",
"    ....XXXXXXXX........XXXXooooXXXXXXXX........XXXXXXXX....    ",
"    ....XXXXXXXX........XXXXooooXXXXXXXX........XXXXXXXX....    ",
"    ....XXXXXXXX........XXXXooooXXXXXXXX........XXXXXXXX....    ",
"        ....XXXX........XXXXXXXXXXXXXXXX................        ",
"        ....XXXX........XXXXXXXXXXXXXXXX................        ",
"        ....XXXX........XXXXXXXXXXXXXXXX................        ",
"        ....XXXX........XXXXXXXXXXXXXXXX................        ",
"            ................XXXXXXXX............                ",
"            ................XXXXXXXX............                ",
"            ................XXXXXXXX............                ",
"            ................XXXXXXXX............                ",
"                        ................                        ",
"                        ................                        ",
"                        ................                        ",
"                        ................                        ",
"                                                                ",
"                                                                ",
"                                                                ",
"                                                                "
};
