/* XPM */
static char *_424d7c64dd74778abaf0efbbee209262mpNjMNL7OhRJRG4[] = {
/* columns rows colors chars-per-pixel */
"64 64 230 2 ",
"   c #235E01",
".  c #276C01",
"X  c #2C6B00",
"o  c #256504",
"O  c #326B02",
"+  c #326700",
"@  c #2C7400",
"#  c #2F7900",
"$  c #357401",
"%  c #3C7300",
"&  c #357B01",
"*  c #3C7D01",
"=  c #38760B",
"-  c #437704",
";  c #447D02",
":  c #4A7D02",
">  c #358200",
",  c #3C8302",
"<  c #3D8B01",
"1  c #3C8208",
"2  c #3E9200",
"3  c #438402",
"4  c #4B8503",
"5  c #458B02",
"6  c #4B8C02",
"7  c #4A840B",
"8  c #448D0A",
"9  c #4B8B0A",
"0  c #518603",
"q  c #538D02",
"w  c #5A8D05",
"e  c #538C0B",
"r  c #598D09",
"t  c #58860A",
"y  c #459302",
"u  c #4C9202",
"i  c #469902",
"p  c #4C9A02",
"a  c #4B920C",
"s  c #49970B",
"d  c #539402",
"f  c #5A9403",
"g  c #549B02",
"h  c #5B9C02",
"j  c #539509",
"k  c #5D940B",
"l  c #559C09",
"z  c #5B9B0B",
"x  c #4A8C11",
"c  c #518E13",
"v  c #4E9410",
"b  c #529312",
"n  c #5A9B16",
"m  c #648D0B",
"M  c #619604",
"N  c #6C9602",
"B  c #639D02",
"V  c #699F02",
"C  c #629B0B",
"Z  c #62960B",
"A  c #649613",
"S  c #719D12",
"D  c #4DA202",
"F  c #4DA00A",
"G  c #55A302",
"H  c #5CA302",
"J  c #56AA04",
"K  c #5CAB03",
"L  c #55A309",
"P  c #5CA20A",
"I  c #55AA09",
"U  c #5BAC0A",
"Y  c #5EB204",
"T  c #5EB20A",
"R  c #5DA711",
"E  c #63A302",
"W  c #6AA402",
"Q  c #63AB02",
"!  c #6BAB02",
"~  c #63A30A",
"^  c #6BA40A",
"/  c #64AB0A",
"(  c #6AAC0B",
")  c #72A603",
"_  c #73AC03",
"`  c #7BAC03",
"'  c #74AF08",
"]  c #78A408",
"[  c #63B304",
"{  c #6BB403",
"}  c #65B906",
"|  c #6DBA04",
" . c #64B40A",
".. c #6BB40A",
"X. c #66BA0A",
"o. c #6BBB0B",
"O. c #73B303",
"+. c #7AB304",
"@. c #74BC03",
"#. c #7ABD03",
"$. c #74B50A",
"%. c #7AB209",
"&. c #73BB0A",
"*. c #7BBD0B",
"=. c #66A813",
"-. c #77A81D",
";. c #6CBD10",
":. c #66B314",
">. c #74B313",
",. c #7BBB13",
"<. c #7DBD1A",
"1. c #6EC007",
"2. c #75C104",
"3. c #7BC303",
"4. c #75C309",
"5. c #7CC40A",
"6. c #7DC212",
"7. c #7BC51A",
"8. c #81AD05",
"9. c #87BB06",
"0. c #94BC07",
"q. c #81BF1A",
"w. c #89BE12",
"e. c #80AD2E",
"r. c #8AB731",
"t. c #83C503",
"y. c #84CA04",
"u. c #8BCC04",
"i. c #82C40C",
"p. c #85CA0C",
"a. c #8ACD0A",
"s. c #89C60A",
"d. c #90CE06",
"f. c #97C607",
"g. c #8DD102",
"h. c #8CD10A",
"j. c #92D505",
"k. c #94D30B",
"l. c #9CDC0A",
"z. c #83C412",
"x. c #85CA13",
"c. c #8ACC13",
"v. c #84C31C",
"b. c #8DC51C",
"n. c #8CCC1A",
"m. c #89C717",
"M. c #97CB16",
"N. c #92CD1C",
"B. c #96C616",
"V. c #8FD210",
"C. c #93D313",
"Z. c #9DDB11",
"A. c #93D11C",
"S. c #9ADC19",
"D. c #95D816",
"F. c #A4CA0B",
"G. c #A6CA05",
"H. c #A2DC19",
"J. c #A1D711",
"K. c #A2C314",
"L. c #9BE218",
"P. c #A9E51A",
"I. c #B2E51C",
"U. c #8CCC22",
"Y. c #8CC725",
"T. c #91CB23",
"R. c #95CD2B",
"E. c #96C82B",
"W. c #8DD124",
"Q. c #95D224",
"!. c #98D525",
"~. c #95D42C",
"^. c #9DDB2B",
"/. c #99D22C",
"(. c #93CB35",
"). c #99CE34",
"_. c #99CF3C",
"`. c #96CD3B",
"'. c #9BD334",
"]. c #9CD138",
"[. c #A2DB2F",
"{. c #AAD92C",
"}. c #A5D325",
"|. c #A2DB33",
" X c #A3DA3B",
".X c #A8DA3B",
"XX c #A9E627",
"oX c #B8F525",
"OX c #AFE039",
"+X c #B4E938",
"@X c #BAF32F",
"#X c #D4FF2F",
"$X c #DFFF28",
"%X c #CBFE3A",
"&X c #C3FC39",
"*X c #D1FF34",
"=X c #D1FF3A",
"-X c #DBFF38",
";X c #C3EA39",
":X c #E4FF36",
">X c #9ACF43",
",X c #9FD14A",
"<X c #A6DC41",
"1X c #A9DE44",
"2X c #A7D649",
"3X c #A4CC51",
"4X c #AEDD55",
"5X c #AFD95C",
"6X c #AAD454",
"7X c #B3DE5B",
"8X c #AFE14D",
"9X c #ACE245",
"0X c #BEF842",
"qX c #B3E154",
"wX c #BEEB50",
"eX c #BCE466",
"rX c #BDE471",
"tX c #C3EA41",
"yX c #C1FF42",
"uX c #C8EF6A",
"iX c #C9EB7A",
"pX c #CFFB74",
"aX c #CDF669",
"sX c #D4EE93",
"dX c #DAF696",
"fX c #E1FF8A",
"gX c #D9F2A1",
"hX c #E6FAB6",
"jX c #E3FCAB",
"kX c #EEFDC9",
/* pixels */
"W &.&.@.#.#.| K D s 5 y * 3 x O - F.$XtXA * n h V ^ B B C B C k f f q 9 u 5 y u d u y g ! E.iXhXkXkXkXsXuXOXm.! ! ' ! ! #.t.j.d.",
"Q $.@.O.@.@.{ K i D s = 7 r O 9 B.:X;XS 4 e n ~ E B h B B h C h f d e 6 6 5 u u d j u h { B.eXsXdXjXjXdXaXOXb.) E ! ! O.#.y.j.j.",
"O.&.| @.4.@...Q l i , c 7 + t {.:XH.w % q E h h h E h B B f h f u d 4 6 6 8 u j d p u K O.m.4XeXrXiXiXuXwX{.w.! ! O.! $.#.y.j.g.",
"O.| { | 2.@.! E L 5 < y X 7 OX:X{.4 & a g h g ^ H E H E g f j f y 6 6 6 5 6 u j u 9 p H &.C.9XqX2X2X2X.X^.B.+.W O.%.$.+.t.u.g.g.",
"{ { { 1.2.| ( H j 3 v X 9 &X*XK.; & s l z P h ^ E E E H g f g d 6 5 6 6 5 y d u 6 u d H &.!.9X8X).R.T.B.M.s.$.! ! _ O.@.9.u.g.u.",
"O.@.| 2.4.2...B u , & b +X:X0.- & 8 s 6 q C E h W ~ h h g u u u 5 5 4 5 6 y u u q u d E *.!.9X9X/.T.N.C.C.s.O.! O.O.O.+.t.g.g.y.",
"{ | | 2.2.{ Y p 6 , z XX*X8.- = v a j j u q h h B B f j j y u 6 5 4 4 9 6 y 6 y d 6 d E *./.9X].A.N.m.c.c.#.! ! #.O.+.+.u.j.g.u.",
"{ | @.3.2.{ K p 4 4 0X*X8.; * , * c 3 y h h h h g h j j d 6 9 9 6 4 7 3 5 5 6 u 6 u f ! *.R.9X'.s.s.i.i.t.@.O.$.' ! _ +.u.l.j.u.",
"{ [ X.p.@.} :.< H @X=X] % 1 5 9 5 9 6 d g h H h H g g u y 6 9 5 8 8 5 9 9 4 9 u 6 d g Q *.A.^.n.5.3.2.2.3.+.! Q { ..O.+.g.Z.k.t.",
"} 1.2.@.6.T 2 / XXyX%.: ; 7 9 3 6 9 u d f h H h g g g u y 6 5 5 3 5 , 3 5 3 q u u g H ! w.A.^.c.6.3.2.@.@.{ ! Q ! ! { +.u.l.k.y.",
"} @.@.3.6.H B +XyX>.* * 6 9 6 3 6 u u q d g g g g g g y 6 6 5 5 3 < , 3 6 6 d d g h H ! w.A.!.c.5.2.2.2.@.{ ! ! ! Q ! #.d.k.k.u.",
"} { #.5.! O.@X%X<.$ $ 8 5 6 4 4 y u 6 u d g g g g g g u y 5 6 6 3 5 3 5 e 4 j g g H K O.z.N.Q.i.@.@.2.3.+._ ! ! ( ! { #.u.k.u.u.",
"} &.4.@.O.I.=Xw.% 9 , 5 6 4 e 6 6 u d d j g g f l l u y 5 5 5 6 6 5 5 d j e h f l H Q $.b.!.!.i.@.@.3.5.#.! W ! Q Q ! #.u.f.u.y.",
"} &.@.+.I.%XB.q 7 9 y 5 6 6 4 5 y y 6 j f j u j g u y 5 5 5 y u y u y j j d f f g H Q *.Q.[.^.n.*.@.4.3.O.! W W Q W ! #.u.d.u.y.",
"..@.y.H.%XP.f 7 v $ 6 5 5 v , 6 6 6 6 d d u d p u y 6 5 6 p u y u u u g h j h g h H ! 6.!.[.[.n.| { @.@.! ! W ! ! W { 3.u.k.s.t.",
"( +.H.%XP.H p p , c 7 ; 6 6 8 6 a y 6 u u u u j y y 5 5 p u j u g g p g h f B h B Q { 6.!.[.^.x.| { { { Q Q ! W H H Q +.a.C.a.3.",
"! J.*XZ.[ [ i 5 < 5 9 6 5 5 y 6 9 e e u y y 6 y 6 6 5 5 y u u y u g g g f B h h h Q { n.~.!.A.i.O.{ { { Q Q / B g L H @.h.u.y.4.",
"p.oXP.3.{ G g < 5 8 5 3 5 y y 6 e 4 6 6 d u u d u u 5 5 5 u u u d g f g g h h h H E { 5.Q.n.c.3.{ { } K E H ~ g g h K @.a.h.y.@.",
"I.oXt.{ } G L < 5 5 5 5 5 y 9 6 6 q q d u g f d u y 6 6 6 y u u u g g g h h h h H Q { i.n.n.p.+.{ { } K h h h g g L Q 2.a.h.y.| ",
"oXj.2.{ [ K p 5 5 8 < 2 2 y u q d d d g g h g g d d y d u u y u u d g f h h h h H Q @.c.~.A.p.@.[ |  .H l h h l g g Q 3.y.a.t.{ ",
"l.2.4.| K U y y 5 5 5 5 y p d f d f h z B P h h g j u y y 6 u j g u g g g g h h H Q | m.~.n.i.O.[ { } K f g l g g g Q 3.h.y.3.{ ",
"O.2.2.[ Q G u 6 5 5 y u u f g g g g h E E H H ~ g g d u u 6 u d j u u g g g f g G Q | n.W.U.6.{ Q [ U g g j f h h h Q p.k.h.3.! ",
"{ 5.2.{ Q g u 6 5 y y f g h H h H H H H B h H H f u d l j 6 u u d y y f l d d d g Q o.n.~.U.*.{ Q [ K g f h f f h H { k.L.k.t.! ",
"6.2.2.&.W g p 5 5 y j g h E E H Q E E E h B g g g d d d u 6 6 j 9 6 6 u d d d d g K &.W.~.U.*.Q E / K d g h l z g H @.D.P.J.u.E ",
"1.@.@.[ E h p 5 i u g G H Q Q Q Q / ~ E E H g g h u 6 u u u y y 6 u a 9 6 6 s y p H 6.~.`.(.,.W Q E H g g h h f h W #.C.L.L.6.{ ",
"4.2.O.Q H g g l y g g G G Q W Q E E E B h h h f f g l l j 5 3 6 5 5 9 5 6 5 5 < u H v.'.`.(.*.! { Q G g g h g g H Q 4.h.h.h.@.H ",
"2.@.| ! H h g l g g H H H Q Q ! ! E E E E E B h g f d p j 6 5 5 3 < 3 7 6 3 , 5 g ..R..X<X).z.*.z.| Q g L ~ P h H Q #.y.3.2.{ E ",
"@.@.@.[ H h g l h G E H W Q ! ! ! ! ! W W E h h h l d 6 6 9 5 3 , , , 3 4 5 , 5 H ,.].1X1XR.z.i.x.&.G g P h g H E { @.3.3.@.{ K ",
"3.3.| Q g h H E H E ! ! W ! ! _ ! ! W W W E h g f h z j 5 3 * * 3 , , 3 4 3 3 y ~ v.2XqX.XT.i.i.x.| H g P H g H E { 4.3.3.2.[ K ",
"3.@.@.Q H H H E E ! ! ! _ O._ _ ) ! ! W Q W h f d j d 6 4 3 * * 3 3 3 4 6 6 3 d ^ Y.6XqX|.q.*.#.*.{ H G P H H H Q | 2.2.3.| Q G ",
"@.O.{ Q H E E E ! ! _ _ _ O._ O.O._ %.' ! W B h f d 3 3 3 3 3 3 * 3 3 3 6 6 6 d ( E.6X4XR.O.{ { Q H H g g H h H Q | 4.2.2.| K G ",
"@.O.[ H h H E W W ! _ +._ +.+.O._ +._ ' ! W B l 4 6 6 9 3 3 ; * ; 5 5 3 4 6 6 f >.E.5X7XT.! Q Q Q Q K G H H H H Q o.4.2.2.{ Q K ",
"&.$./ Q E H E ! ! ) O.+.+._ ` +.%.%._ ` W W h f d 6 3 3 5 4 3 * ; 7 3 5 9 5 y h >.).5X6Xv.Q K G K Q H g H E h h ! | &.@.| { E K ",
"@.{ Q E H H E ! _ _ ) ) _ ` +.%.%._ ) W W E B f q 4 4 3 ; 3 3 ; 3 3 3 3 9 6 6 h >.).5X,X<.K K K K E h h E H h H ! { $.| { { H H ",
"O.{ E G h h E W ! ) ) O.O.` %.%._ ) ) ) W V z f 6 6 9 3 , ; , 3 3 5 9 9 9 5 u H ,._.4X>X>.G J K G E h h H h h E Q { | O.{ Q H H ",
"O.Q H H h h h E W ! ' ' _ ' _ _ ! ) ) ) ) B f q 4 4 4 3 3 , 3 7 3 9 5 5 5 5 u H 7. X4X_.:.D G J H E h h h H h H { { ....{ Q H Q ",
"{ E g g h h H E W W W E B W ) ) ) ) W W B B f 6 6 4 3 5 3 3 5 4 5 5 6 6 4 5 p Q v. X8X(.:.p D I H H h h h g g Q  .{  . . .K H H ",
"Q H d d f g g h H E E E W E W W ! W W ) V C f q 3 3 3 3 3 3 3 5 6 5 6 6 6 6 g Q v.|.9XY.U p D L h h g h h g h K { { [ Q [ E H H ",
"Q h d 6 d d d g h h B ^ W W W W W W ) ] ^ N q 4 * 3 * 3 3 3 3 5 5 6 6 q 6 u L H 6.Q.R.v.U i G L g H g f h g g [  .[ Q [ [ G G G ",
"H g j 6 6 4 q f h g h E W B W ) W ) W V B f q 3 3 3 7 * 3 3 3 3 5 6 6 q d g h G *.b.Y.$.G u L I g h f l l g g Q X.{ [ [ Q G H H ",
"R y 5 3 3 6 q f h B B V B B W V ) V W V N f 4 4 * 3 3 5 3 4 6 6 6 6 y d d d g Q +.5.4.K D p G g g d f h l d H  ...U K } Y G G H ",
"l y 5 3 3 4 y f g B E V B B W B V V W W B q q 3 3 1 3 * 3 3 4 6 6 6 u d f d B ! @.4.| J D p D g g d g f j u H  . .[ [ } Y G G G ",
"s 5 5 , 3 6 6 f h B B E B B V W V V V V M q 4 3 , ; 3 ; 3 3 4 6 6 u u f h l E ! | @.} G D i g p g d d d d u H [  .Q [ } Y G g g ",
"5 3 3 3 3 5 6 f h h E B B h B N W V W N M q 4 4 ; ; 3 3 3 4 6 6 u u u g h h E { @.| } D i p p g f d d d 6 u H  .Q U [ } U G g G ",
", , 3 , 3 6 6 f h h B ~ B B B B W V V V f q q 3 ; ; 7 7 4 4 6 d u u u g h H E  .o.o.[ D i i g g d u d d 4 u H [ K K [ } Q g p G ",
"< , 3 3 3 5 y u P B B h h f B V ! ~ ^ B f q 7 : : : : 7 0 6 q 9 u d d g h E ! | &.| K p i i p d d d d q 6 6 H [ Q Q } o.K p u g ",
"5 , 3 3 5 6 6 f h h h B B h B W W V ~ B d q 4 4 : - : : 4 0 4 d d u d d z H ( o.| } G i i p g d d d f d 6 d K Q Q Y | o.J u u H ",
"5 , , 3 5 6 u u h H h B B f B W W ~ B B q q 4 : - : : : 4 4 q d 6 d 9 u g E  .$.| } G i y u l f d d f q 6 d H Q K Q  .} K u u g ",
", 1 1 5 3 5 u d g h h h B B B W B B B V f : : 0 : r r.3X-.: 7 k q u d d g L Y } } T G i p l p g f d w d 6 g E Q U Q | o.g 5 y p ",
", , 5 8 6 6 g g h h h B E ~ ~ W ^ V M f f 0 : : ; A 7XfXeXZ 6 j 6 d d d g H [ { } U G p g g j f f f f q f z Q Q K [ o.} p 5 6 j ",
"5 , < 8 5 y g h h H B E ~ E E V V V M f w q 0 - - A 3XpX4Xk 3 e d d d d h K K }  .U D p g l j f w f w q f ~ / H K [ o.U y 5 y d ",
"i , < 6 5 u f g g h E E E W B V B W V M f w t 4 : r -.r.-.w q e d d d d g H Y [ T L p u l l f d f f d q h ( / H G  .&.U 5 < 6 u ",
"l 3 5 5 6 j l g g h H E ^ E ~ B B W V B f 0 0 q : w m M f w d q d d u d g K Y Y Y D i y p l h f w f q 0 f / Q G K o.o.L < < 6 y ",
"~ 5 5 6 6 l h h g H E E ! E W W W N B C f w 4 0 4 q w f 4 4 6 4 a q y d g H K Y Y p y y g h h f w d q q f ~ E G K ;.;.p , , y 6 ",
"P 4 6 a u g h h h E E W E W W W ! B B h f w 4 4 r r w k 4 4 e d j u d u G K Y Y J i < u g h B f f f w q g H H G Q ;.X.i * , 6 6 ",
"z ; 9 u 6 d g h H E E E W ~ W ! W V B B f q q q 0 q 4 d ; 6 j d j d u d G Y T T D 2 < y j h h d w f w q h E g g  .;. .y & , 5 y ",
"q 6 9 6 6 d q B B E E W W W W W ! N E B f 9 4 q t m m k > & g H w q d f G K T U F 2 < 5 d h f f d w q f h H G J Y 1.L 8 > , < 5 ",
"d 5 5 5 d l f h h B B E W ! W W W B B B f d q q m m m f & @ p h B f g g G K J J s < < 5 d h f h f w d d h H L G T 1.L 2 & 1 5 5 ",
"g 5 3 u d h g h h B E E W W W W W B V h f d w M N N N M $ . u E M f f g G Y J J s > , 3 6 f h f f w q d g H g J Y X.D 1 & , 3 5 ",
"L 5 6 6 6 6 d g E E E E W W W W W B V M d f M W ] ` ` ) 1 o 7 =.h h g h G J J D y > > 3 u f f h f q d d g g G J } X.p 1 & , 3 5 ",
"P 6 6 u 4 d f H h B E B W W W W W B V f f M ) ` 0.0.0.w.c   $ =.~ h g G J J J D s & & 3 6 f f g f d q d g p p K X.X.y 1 & 3 9 3 ",
"R y 6 9 q l g h h H B E W Q W W W B V B B W ` 9.f.G.F.B.A   X n ~ h g g G Y J F < & > 5 d f f f f 6 u d g p p  .X. .2 * & 5 5 5 ",
"d 5 3 4 4 d d g B H E E ~ ^ W W W E W W ) ` 9.s.F.G.G.f.^ O O n H g g p J J I i < # & 3 q f f f f q d d g p i X.X.T 2 > & 3 5 3 ",
"u 9 j 6 q d d h h E h B W W ! ! W W ) _ +.9.0.F.G.G.F.f.^ = $ n =.P g D G I F i > @ $ 3 d f f f f u d u g p i X.} T 5 > & 7 5 4 "
};
