/* XPM */
static char *_b06113d9bde421cc907a5c7fc701c6ckPqqYqRFJbsF2a4c[] = {
/* columns rows colors chars-per-pixel */
"64 64 108 2 ",
"   c #8C6B4E",
".  c #8E6D51",
"X  c #906E52",
"o  c #8E7451",
"O  c #8E7A57",
"+  c #917255",
"@  c #917955",
"#  c #937358",
"$  c #957C5B",
"%  c #9C7D61",
"&  c #94815E",
"*  c #9D8063",
"=  c #9C8965",
"-  c #A38465",
";  c #A98767",
":  c #A6876A",
">  c #AC8568",
",  c #A58B6B",
"<  c #AB8C6D",
"1  c #B08669",
"2  c #B38E6F",
"3  c #A5906E",
"4  c #AC916E",
"5  c #AC8D72",
"6  c #B58E71",
"7  c #B98F73",
"8  c #AE9275",
"9  c #AC9974",
"0  c #B39475",
"q  c #BA9475",
"w  c #B69877",
"e  c #B39679",
"r  c #BD9679",
"t  c #B49A7A",
"y  c #BB9C7D",
"u  c #B0A07C",
"i  c #BDA17E",
"p  c #C39C7E",
"a  c #C1A27F",
"s  c #BC9D81",
"d  c #B6A581",
"f  c #BEA282",
"g  c #BEA885",
"h  c #BFA588",
"j  c #BFAE8A",
"k  c #C49F81",
"l  c #CA9E82",
"z  c #C4A484",
"x  c #CAA485",
"c  c #C5A986",
"v  c #CAA987",
"b  c #C4A689",
"n  c #CCA689",
"m  c #C6AA89",
"M  c #CDAB8B",
"N  c #D1A68A",
"B  c #D2AC8D",
"V  c #D8AF8F",
"C  c #C5B18C",
"Z  c #CDB18E",
"A  c #D3B08E",
"S  c #C6AF90",
"D  c #CEAF92",
"F  c #D5AE91",
"G  c #D9AE91",
"H  c #C6B490",
"J  c #CDB291",
"K  c #CFB995",
"L  c #D5B293",
"P  c #DAB395",
"I  c #D5B996",
"U  c #DBB897",
"Y  c #D5B799",
"T  c #DDB698",
"R  c #D6BB99",
"E  c #DDBB9B",
"W  c #E0B697",
"Q  c #E1B996",
"!  c #E1B799",
"~  c #E2BB9D",
"^  c #D4BFA0",
"/  c #DFBFA0",
"(  c #E3BFA0",
")  c #E9BEA1",
"_  c #D6C39D",
"`  c #DCC29E",
"'  c #E2C29E",
"]  c #D6C3A3",
"[  c #DEC4A2",
"{  c #D7CAA1",
"}  c #DDCAA4",
"|  c #DEC6A8",
" . c #DDCCA9",
".. c #DDD1A6",
"X. c #DED2AA",
"o. c #E3C3A3",
"O. c #E8C5A5",
"+. c #E2CAA5",
"@. c #E9CEA7",
"#. c #EAC7A8",
"$. c #E5CDA9",
"%. c #E9CBAA",
"&. c #E3D1A7",
"*. c #E3D2AB",
"=. c #E9D1AC",
"-. c #E4D5B1",
";. c #E8D6B2",
":. c #E3D9B2",
/* pixels */
"[ $.$.+.' ` U I P P A P P P L V n F R E ( ~ ( ! P / / ^ K C U R F B M Z I U U U L P U P P L G G N n p p 7 6 : : % X   + o o O & ",
"$.$.' U I C c v A P P ! T P L F P R E R U E ( ( T L m b c c m L L L A I ` ` ' ' ' U A Z c B P P N p 7 > > 5 s b s 5 $ O @ $ = 9 ",
"&.+.` E Z a i g Z L L Q ! T P F F F L F P ~ ( ! T c r t c C c M R ` E _ ' +.&.@.' Q Z a y v P P n p q 7 7 l Y | ^ S e = * = j { ",
"&.` E A v i i c Z A V Q ~ E T T P F m B P E ! ~ U y 8 0 Z R L A E } ` _ &.&.&.' ` I M y y a V B B G G B N Y o.*. . .H t 3 d ] :.",
"o.R U L Z c c c M V U ~ ( o.( ( E R M m F ~ ( E B c a C ' ' Q P ` &...' &.' _ _ I Y V n k x B V P ! ) ) W ! o.+.$.*.+.J 9 j  .;.",
"I A A L A M c M P T T ! o.#.O.o.~ R J n B ! ~ T A L ` ' @.' ~ Q ` +.&.&.@.' I v B L L n x B G Q ! ~ ~ ! ~ ~ E _ ` $.%.Y d H | $.",
"U M m m m v n V T U P P ( o.[ T L L m b N G P P I ` *.@.' Q Q ~ ' ' +.#.' ' V A n m x x n F T P W V W W ) ! P c M I E L c J E R ",
"R L b f i z B P T L n n Y R J b z z z F L G F P I ` &.+.U V P ' ' E o.' ' U U V n p k x M P E P N N B W G B n z z M F F F Y R J ",
"I J h s k n G T U F F n L J b f z z C U U T T R _ { +.[ P F P E ~ ~ ~ E P P P G z y k n F Y P L B N V F M c z z M Y T T T ~ E L ",
"P M x l n M G L F B F G L F M n N N T ~ E ~ o.| } ..$.o.! P P T ' o.' E P T G n z x b F G L F F A F P G B n n L E ~ ' ~ ' o.[ E ",
"P n N G F F N F B F F P ! ~ ~ Q P G ! ! E E +.*.X.*.$.O.~ P F F o.O.o.~ T T F M N F F V F F F F L T ! ~ ~ ! P U E T P ' o.$.*.&.",
"T G F G T P F F P T T G W ! ~ P G W Q P L L U } *.*.+.( T P P P P ~ o.~ ~ ! T F F P P P G F P T T P T ! ( T P P T P A L / o.$.[ ",
"T U L T / ( T T T ( P P W ! ! G P ! T V n v L ` %.$.o.E T ~ E L L T ( ! P T T L P T T E ! ~ ~ ~ ! T T ! ! U P T T A n M Y E [ R ",
"E ~ E E E E ( ( ( ( T ! W G G G G T P G n v M L E o.E T T E E P L L ~ T Y P E E ( E E ~ ( o.) ( ! ~ T T F A P T P L A n M F J b ",
"O.#.O.o./ T T T T ! ( ! T G F G G P P P A N n z c B P T T T T P B F P ! T E o.#.o.o.R E T T ~ ! ! ~ ! G B V L A P L L B n z s e ",
") %.%.O.( / G F P T ! / P N B P U U P P P B s 0 1 r N P F P T P F B G ! ( ( o.%.$.| ` E P F P T ~ T P V A A U P P P L n k w 5 : ",
"( O.%.#.O.~ G F G G T P V M L Y Y T L L F n w < < q p N V L E ! G F G ! ( ~ ( o.$.o.o.T L N B T ! G B F U U Y L F F F m z r < < ",
"! ~ ) ) ( P P P T G G B B L L b h z i h m m k w w p x n B F ! P P G P P T E / ( o.( E U P P P P F B D L J m z z y z n n z y e s ",
"( T T ( T G P ! T P F B F L z e 5 8 e i c n c k a c n N F L P L G T G G T ~ ~ ! E ~ P G P T T A F M M Z b e 5 4 0 f c z s z z b ",
"! G L P F F P T P F F L L m t 5 , 8 t z c c n N v n M Y T L D L T E G F T ! ! P P G G V G U P A L I J z 0 4 < 9 y z c z z m M B ",
"G P P n k k n F F n B T L f 9 8 t f b b n n F B n z n P T I I _ [ / T L G P W G G N l p B V N B L I F y 9 0 t f g c c n B B B M ",
"B P T x 6 6 p F F N M T B k y s s h b s z F G F V n N L U ` _ ` +.[ / ( P V G P G l 7 7 p B B N F L V k y s f g g z c A L A A V ",
"n L T N q 6 r n B n V T L M c z f f b b k x L T E B V U U _ .... .} +.) T N F P P N 7 7 p B B B F T P B x f f i g c M Z V P U P ",
"F T E F l k n n N F P ~ ! P B n z h m D n n P ( ! P R ` +.` &.&.*.| o.o.T N G ! ! G l p a N B V T ! ! G B n z a c Z L V V P ! ~ ",
"R ~ T F N B B N B G W ! ! ! U V D m F Y T T ~ ' ! T E ' ' @.&.&.+.R R U U V Q ! U B n N B N B V Q Q T U I A M B A L U P V P ! ~ ",
"! T F n n B B B B F G G T T T T G F M L L R ' o.~ U L U ' ' ' ' o.` L F P P T P A A v v B N A A L U I ` I I I A A V B V P Q E Y ",
"P L L V D F F F M B P P E T L T U P m n M Y ' ~ U A B A P P T ! ' ~ T F U T U P A Z A A V N B A L U U U I A U Y B v A A R E E I ",
"P T T E E E Y Y L I E ~ o.R D L T T m z c L U L M V V P P P T Q T P Q ! Q U A I U ` I ` U U A V ` ' ` L Z A T R I I U ` ` ` } +.",
"F Y E o.+.+.$.o._ K _ _ ` ` I U ~ o.T M N F V N B R [ E E T ! Q G F V P ~ Q L I ` +.' +.@.' ` I U U U C Z A E E ` }  . .} ..*.=.",
"M Y [ o.$.$.$.$.[ C i c U +.o.E E ) ! G F F B B A E [ E T T ! Q ! P F V A A A I ` +.&.&.&.&.' A a a c v I ` ' +.+.*.X.X.X.-.-.$.",
"M I E [ +.+.o.[ R m i g I $.#.~ T ~ ! G G T G G L v z m U T L Q ! T U E A c Z I ` ` +.&.+.` _ M a i v I _ ' } } } } X.-.-.-.| R ",
"z M I I / +.o./ I m g c I o.~ R T T T F P W G P P z i M U E P P P B A E A a a Z A I _ +.` I A v a a v _ ' +.&..._  . . .] ] S s ",
"k n B M E ( ( P B M B U ~ ~ P P ! T U F L T ~ E F n M P E ~ ! F l w a A M i z c M L ` ' ' L M a a a I ' +.+.*.....X.;. .^ S 8 5 ",
"z n M B P ~ ~ G B B F ! ~ ! P T ~ ~ E U L T o.~ Y F P T P T ! B q > < y y f v n v v I ' Q P A N V I _ ` +.+.} ..X.*.*.] S t 5 5 ",
"F F B B F P P F F G W ~ ~ ( ~ T L L E / U B E o.E U T ! F P T n q < , < 4 z A A v B V V P V B W Q ' ' ` o.} } ] ] R K b s e 5 5 ",
"P P F B F F V F G T ! ~ ! ~ ~ m w e Z o.[ J L R R T E E T U R M z y 0 0 w v U L B B A A V V B V P Q ' ' [ [ R J u 8 , - % % 5 5 ",
"P L F P U P P P F F F L T ( L h < - z [ O.T I L L Y E o.o.o.E U L M c z z B E V A P P P G G B B V P ~ ' E L z 5 % % X . % % 5 6 ",
"T P L G T T T Y F F B F G P G n y y J ` o.~ E R U T ( o.| [ o.! P V N N V L T U L P Q Q ! G F B N V V B n y : % . . . . . % % % ",
"E ( ( T U L A J Y L F L G P T L N Y E [ ~ ( ( ~ E R E [ I M L P L V N L U E E ` E P P P L F P L B a p q 6 6 5 5 % # o .   O % % ",
"} } o.E L M c v Y Y F T T P P L L R R T R E ( ( ~ I J M c z n Z L U P Y E ` +.' ' E A n z B T T B p 7 1 > e z S h 5 % + . % 3 9 ",
"*.$.o.~ B z y c F F F T ( T L L L J B F Y E ~ ~ ! m w t c m c m Y E [ E [ +.*.%.O.Q B z p k P G N p p q 0 z E +.] S t , $ 3 H  .",
"$.+.E Y M f y c B F L T E E R E E L n B L R O.~ T x 8 0 Z _ L M R o.} } } *.%.o.~ T n p y z B G B B B N c J | %.$.| K t , i _ :.",
"o.Y L I L m n n F G T E / [ o.o.~ E L M L ! ~ ~ L m i m _ } E Y E o. .}  ...[ T P L V n l n F P G ! ( ! T E o.$.$.-.+.J t j X.:.",
"E D J J J M n F T T T T / +.o.o.~ E B n B T ! ! U I _ } } +.` E o.+.*.*...} Y M F L L n x B T T ! ! ~ ~ ~ ~ E ! / O.O.Y d C  .X.",
"Y L M m c z n G ! T P G [ o.E L F n x N B B F F R [ +.$.[ R T ( o.o.O.+.+.[ Y B n n x z x V T U P G P ! E U F n B P R B m M R R ",
"T P n p y x N P T P F F U R D c x l N B F F B Y E o.+.| Y F P ( ( ( ( o./ T T F n y y z B P T P F N B G B n c z B L P J L Y P m ",
"P G z p k N G T P L M F F M m z k x N W ! R R E [ o.| [ L F Y ( ( ( ( E L L T F z p p n F E T F B N V V m z z m L T E I E [ E L ",
"P N x x N B V G F B F L P P L m m F W ~ ~ o.o.o.} $.*.o.E T P T ( ) ( ( T L L M x x N B B F G F V V T T A n n P ~ E E ` | $.| [ ",
"P B F F F F B N B F F T E ~ ~ R L U ! ! ! ( o.$.*.*.*.$.) T L G Y ) ) ( E T P M M F P F F n B G P P Q Q Q P V U T T I E } *.*.*.",
"P U T T U U L F L T P T T ~ E T L T T G N G E } *.*.+.' T T P L P E ( ~ E E T F L L T T G P P T T L P Q ! P V T P A A Y E +.%.o.",
"R E E ~ ~ ~ ~ ~ ~ ~ ~ ! T E T L T ! T B n n L } *.=.o.E T T T P F L T E R T Y T T Y ~ E E ( ( ! T U P T G G P ( U n v Z Y / o.U ",
"B E o.~ E ~ ~ ! ~ ~ ~ ~ ! P F B G T P V N n M L ~ ~ E E ! ! ! T F P T E T E E / / E Y / ( ( ( ~ ! ! ! P G G G T P V n v m D D z ",
"k L O.( ( E T T ! ! ~ ~ T F M F F G P P L B z z z n P P P P ! G N F P ~ ~ [ ) O.| / / / E T T ! ! ~ T G B G G P L U L m z y w e ",
"e k Y O.( T F V P ! ! R L B F L P L P P U n y 5 > q n P G G ! T F B G E ( ~ o.%.$.+./ T L M G ! ! Q F N G P T P T Y L m z 0 , < ",
"r 6 z E ( Y F B A T T A M F F Y T L L A B n r 5 < 6 z N B G ! T G F G E ~ ~ o.o.#.#.o.E F B F P P B N B T P P P L D M m z w 5 < ",
"M y 8 y k l n B L U A M D L L b h s y k c c p r r p x n B P ! T Y Y G P E E E E o.o.~ T L P P G F B B P F x s s y z n c k y w i ",
"T z ; - 2 y N L P V N A A Z z 0 5 5 8 s f z z x z n N L F F P L G T L F P ! / T ! ! T G P ! T P B J J L s 8 5 8 0 y z c z a z n ",
"Y 0 & - 0 v L U V a A L A c w 8 8 e s h c x n n N n M Y R I L I T / P F P T ! G G G G G G T G B M I L c e 5 5 t f z n m n n v B ",
"L < $ ; i v B B B B A U L y w e t s b z c F F B N n m L R R R [ [ ( Y P G G T T G x p p N G B n L Y J s e 8 y z c c n B v B v v ",
"y - - 0 i v B B B N A Q J z s s s b z z n M L F V n M J K _ _ } +.+.o.( G N F T G l 7 2 l F N B F U M z h h s c c x n L A B V V ",
"< 4 i m D Y T P F B V U Y n v b k z c n s k F Y E F L R ] } } *.$.+.$.O.P n n T U n r 6 p N B B P ! G M m m z z v v B B B A T ! ",
"< w M Y E o.O.~ P L P E E L B N x z n B M n G E E L E [ +.| } *.$.[ ) o.T F G T ! G n p l B V F P ~ ( P B m z z M P P V B P ~ o.",
"c Z I ` O.$.#.( T T T T E T U F B N V P E T / / ~ T E o.O.O.$.%.o.Y P P P T T E Q G N N N B B G P ! T T L G B M L U U L L U E U ",
"I ` ` ' o.[ E U L G V P P T T T P L V V P T ( o.~ F L E ( ( ( O.O.~ P L P T T T V B N N N N n V G L P T U U R L M M M L I R E L "
};
