/* XPM */
static char *_89af8416ba04012bf8896e119572dd7JvMOgIh0ykwiRzUC[] = {
/* columns rows colors chars-per-pixel */
"64 64 245 2 ",
"   c #99190D",
".  c #9D1C0E",
"X  c #8E1A15",
"o  c #8D1A1A",
"O  c #931615",
"+  c #991612",
"@  c #941B14",
"#  c #9C1C14",
"$  c #931B1A",
"%  c #9C1C1A",
"&  c #A31B0D",
"*  c #AC180A",
"=  c #AB1B0C",
"-  c #B61E06",
";  c #BC1D05",
":  c #B41D0B",
">  c #BB1D0A",
",  c #A31C13",
"<  c #AA1D13",
"1  c #A21D1A",
"2  c #AC1F18",
"3  c #B41E12",
"4  c #BB1E12",
"5  c #9C200D",
"6  c #9D2015",
"7  c #94201B",
"8  c #9D211C",
"9  c #A4210F",
"0  c #AD210D",
"q  c #BD2004",
"w  c #B52508",
"e  c #B4220D",
"r  c #BC220C",
"t  c #B6300D",
"y  c #BD330D",
"u  c #A42214",
"i  c #AB2314",
"p  c #A52816",
"a  c #AC2A15",
"s  c #A4221A",
"d  c #AC2419",
"f  c #A6291B",
"g  c #AD2A1B",
"h  c #B32313",
"j  c #BB2312",
"k  c #B32C14",
"l  c #BB2D12",
"z  c #B32419",
"x  c #B22D1B",
"c  c #AD3115",
"v  c #B33215",
"b  c #BD3412",
"n  c #B93A16",
"m  c #B4331B",
"M  c #BB341B",
"N  c #BE3A1B",
"B  c #921D21",
"V  c #A41F20",
"C  c #A62C23",
"Z  c #BC3722",
"A  c #C41E04",
"S  c #CC1D02",
"D  c #C31D0A",
"F  c #CB1D0A",
"G  c #D31E01",
"H  c #D91D00",
"J  c #C52201",
"K  c #CC2301",
"L  c #C52C00",
"P  c #CC2B00",
"I  c #C3220B",
"U  c #CB220A",
"Y  c #C42F0F",
"T  c #D22200",
"R  c #D62203",
"E  c #D12A00",
"W  c #C53500",
"Q  c #CB3300",
"!  c #C53B00",
"~  c #CB3C00",
"^  c #C3340F",
"/  c #D23300",
"(  c #D13B00",
")  c #C32812",
"_  c #C33414",
"`  c #C53B15",
"'  c #C73819",
"]  c #C43C1D",
"[  c #C33E23",
"{  c #C54300",
"}  c #CC4400",
"|  c #C44C00",
" . c #CC4B00",
".. c #CC470C",
"X. c #D34200",
"o. c #D14C00",
"O. c #DA4D00",
"+. c #CC5300",
"@. c #C75B00",
"#. c #CC5C00",
"$. c #D25200",
"%. c #D25D00",
"&. c #DA5C00",
"*. c #D8510C",
"=. c #CB4616",
"-. c #C5421B",
";. c #CC441B",
":. c #D44517",
">. c #D34B15",
",. c #D3451B",
"<. c #D34B1D",
"1. c #DC4D1B",
"2. c #CE521A",
"3. c #D55214",
"4. c #DB5415",
"5. c #DC5A16",
"6. c #D4541B",
"7. c #DC531B",
"8. c #D35B1D",
"9. c #DD5B1B",
"0. c #E15A00",
"q. c #E45B12",
"w. c #E2541C",
"e. c #E35A1C",
"r. c #CC6300",
"t. c #CD6900",
"y. c #D36300",
"u. c #DA6300",
"i. c #D56B00",
"p. c #DD6C00",
"a. c #CF7200",
"s. c #CF7A00",
"d. c #D57400",
"f. c #DB7400",
"g. c #D57A00",
"h. c #DB7C00",
"j. c #DA631D",
"k. c #E26B02",
"l. c #E6670C",
"z. c #E46B0B",
"x. c #E27501",
"c. c #E77506",
"v. c #E47A02",
"b. c #EC760B",
"n. c #ED7D0D",
"m. c #F17A0D",
"M. c #E56413",
"N. c #EA6514",
"B. c #E46C14",
"V. c #EA6B15",
"C. c #E5631A",
"Z. c #EA661A",
"A. c #E56A1B",
"S. c #EB6C1B",
"D. c #F16E1A",
"F. c #EC7213",
"G. c #ED7B14",
"H. c #E7711C",
"J. c #EC721B",
"K. c #ED7A1C",
"L. c #F17C14",
"P. c #F0701E",
"I. c #F37D1D",
"U. c #C54121",
"Y. c #CB4423",
"T. c #CC4A25",
"R. c #D04326",
"E. c #D45322",
"W. c #DA5522",
"Q. c #D55A22",
"!. c #DD5A23",
"~. c #E15621",
"^. c #E35B23",
"/. c #E05E29",
"(. c #DB6322",
"). c #E36421",
"_. c #E76622",
"`. c #EA6B21",
"'. c #F06829",
"]. c #ED7A25",
"[. c #F27D23",
"{. c #F37924",
"}. c #D58200",
"|. c #DD8400",
" X c #DD8D00",
".X c #DE9200",
"XX c #DE9A00",
"oX c #E38500",
"OX c #E38C00",
"+X c #E88A01",
"@X c #ED820C",
"#X c #EC880A",
"$X c #F2850D",
"%X c #F18D0A",
"&X c #E39300",
"*X c #EB9503",
"=X c #E59C00",
"-X c #EB9C01",
";X c #EE930A",
":X c #EF9D0A",
">X c #F19D05",
",X c #F39409",
"<X c #F4940D",
"1X c #F59C0C",
"2X c #F99E0D",
"3X c #EE8312",
"4X c #EE811A",
"5X c #F38414",
"6X c #F48A13",
"7X c #F4841C",
"8X c #F7891B",
"9X c #FA8B1C",
"0X c #F49313",
"qX c #F99514",
"wX c #F59D14",
"eX c #FA9D14",
"rX c #F59718",
"tX c #FC941C",
"yX c #FB9C1B",
"uX c #E6A300",
"iX c #EBA301",
"pX c #E6AB00",
"aX c #ECAB01",
"sX c #EFA308",
"dX c #F1A404",
"fX c #F3AC04",
"gX c #F8AB06",
"hX c #F4A50B",
"jX c #F9A40D",
"kX c #F5AB0B",
"lX c #F9AA0D",
"zX c #ECB003",
"xX c #EBB005",
"cX c #F2B104",
"vX c #F3B208",
"bX c #F6A213",
"nX c #FAA213",
"mX c #FCA914",
"MX c #FDA31A",
"NX c #EF8623",
"BX c #F38223",
"VX c #F88225",
"CX c #F68B22",
"ZX c #FC8C24",
"AX c #FC9620",
/* pixels */
"p p e A S T K Q #.OXiXiX>X$Xb.5.T.C B 7 # , : D K ! f.uXzXlXAX(.U.p 1 1 % % s i h A A G K Q #.OXiXiXbX$XV.^.[ g $ o 7 i j F K ! ",
"h j I G S P ! #.OXdXdX2X9XD.^.;.f o o $ . = > S K { h.fXlXtX_.U.u @ # % < < h 4 I S T E ! r.OXfXiXeX8XS.7.-.g O O @ . i I S P | ",
"> D S R E ~ r..XaXkXbX7Xq.1.Y.g O o $ . 9 : A S Q r.OX>X0X_.-.s $ $ % d z j > D S K E ~ r..XaXgXbX5X5.7.-.p @ o +   * q D K ~ y.",
"S G H E ~ r. XcXlXMXVXw.Y z s @ X @ . * ; J J W %.OXiX:XB.;.p o o o s d ) F G G H E ~ y..XxXkXyXBX4.^ k p @ X @ & : ; A J W y.&X",
"R T P Q %. XaXkXyX[.~.) z 1 $ o + & - ; J J ! $.oXiXkXrX8.m # o O # i j ) G H H E ~ y.&XaXkXyXI.7.b i # X X   , : D S J Q %.OXiX",
"Q Q { r..XaXaXeXI.1.' d 1 B $ + * A S G K W %.oXiXdXyXVXQ.c 5   & - D A F G E Q  .t.&XaXlXeXP.4.^ i % o X   = D K K K ! y.OXiXdX",
" .k.oXOXdXgXeX5X5._ z % $ O + * ; S K K ! %.oX-XsXyXNXQ.v u 5 * ; A S T P Q o.k.v..XiXgX1XL.4.^ h % $ o   * D S T K ~ &.OX-XdXyX",
"x.&XiXaXgX2X6XA.<.h 1 % O + * ; S G K ~ y.oXiXiXwXNXQ.Z # 5 9 ; K T G T Q  .f.*XaXaXfX2X6XS.=.a u $ $ # & ; K S E ~ y.+X-XiXeXBX",
"-XiXaXfX2X5XZ.^.U.6 # @ # & - A P Q ! y.OX-XiXnXBXQ.v # , = ; A K P Q ~  .h.=XpXfXlX1X$XV.!.N 5 @     & w K P Q { y.OX-XdXyXBX6.",
"iXaXfXhX6XS.^.Y.g 6 # . = - A L X.k.x.|.*XiXbXCX8.v + , 2 ) J S J ~ &.f.g.=XuXaXfXbXm.F.e.] g 6 . & * - J P } k.f.|.iXiXwXBX6.x ",
"fXgXnX4XB.^.Y.p 5 @ 5 * ; S L } p.*XiXiXdXnXBX8.c .   = r K E K ~ y.+X=XuXuXaXlXeX6Xl.e.Y.p # # u : D S L  .f.*XuXpXiXwX4X8.k # ",
"lXyX7XA.).Y.a . @ . : D S K } p.-XiXaXgXeX7X8.v u . = > J T P ~ u.+XiXuXiXaXlXMX5XS.^.R.a . # , e D T K X.f.-XpXaXhXyXK.2.v # & ",
"yX[.5.;.N a 6 6 u e ; S G P o.|.pXaXfXnXCX8.M , , = > S G R Q i.OXuXpXpXaXlXyXI.7.] [ g # , , 3 D G H P $.OXpXxXfXyX{.6.v 6 . * ",
"I.w._ a u 5 # u z I S G T ~ r. XaXfXnXBXQ.m # + = - A S G E  .OXiXpXaXhXjXtX{.W.' z s # # < : I S T P ~ t..XfXkXyX[.E.x # & & q ",
"e._ i 8 7 @ # z j U R E ~ y.|.=XdXeX[.W.M % + < - A G G R Q #.XXpXxXhX;Xn.D.w._ z 8 % % & = r S G T ( y.|.iXaXyXBXW.x , # & ; A ",
"_ d 8 7 @ # 2 j F R T Q %.}.uXiX1X7X6.M # # & : D S G S Q o.g.=XcXlX<Xb.q.>.b i 8 @ o # & > A T T ( u.OXuXiX1XL.3.m # , & q A K ",
"i % $ 7 @ p h D G G E o.oX=XuX:X8XZ.N , @ s e I S S K Q  .f.-XiXdX,Xc.V.e.b u % $ @ % , : D S G E o.+XiXiXsX6Xq.b # # u h I J T ",
"u $ o # u a r F G R P #..XaXiX6XD.~.M + + u r U G T P  .h.-XdX1X%Xc.k.M.9.m # $ o O , 3 > F H H / %.*XpXdX$XP.7.x   6 u r K K K ",
"% @ X u h r I S T P  .a.XXfX1XG.3.T.g + , h I U R P } g.*XiX1X;Xc.k.M.w.;.x # $ @ , 3 > S K E /  .t.=XaX1XF.7.Y.z + # = I J K Q ",
"% % # u w J K E Q ! d.=XuXhXyXJ.<.u % $ , > I K E ( x.=XiXsX<Xv.k.N.e.:.j i % # # < 4 A K P Q  .f.=XuXdXqXD.;.d 1 % < 3 q J K } ",
"# u i : q J ~ &.p.g.&XiXiX<XL.C.T.s @   = > S S L } |.uXpX*Xx.z.N.e.1.l i 1 % s i > A J Q &.p.h.&XiXsX,XI.`.-.6 % + : > D K L | ",
"u i r S K ~ &.OX-XuXiXdX,X5XA.7.Z % # & : D S K ~ r.XXxXfX#Xk.M.^.' h , # @ 6 i I S K ~ %.OX-XuXiX-X0XL.Z.W.m 6 @ , > S S K ! t.",
"i w S H P &.oXuXaXzXlX<Xn.A.E.m s % u h > A G P y.OXaXfXeX@Xl.!.;.g u # 6 6 < > S G E &.OXiXpXaXlX<XG.).E.m 6 # , = ; S G L y.&X",
": A S T Q p.-XpXzXhX,Xn.Z.6.M u % 1 z I I S S W i.uXxX1X6XF.9.-.p # % 6 6 i > D G T ~ d.-XiXfXgX<XG.A.E.x s # 1 h r A G S W i.iX",
"S G T P | d.iXaXlXqXb.N.1.] s @ # 0 r I G T P { s.uXkX0Xz.9.U.p @ @ @ 9 w I S G R Q +.g.uXaXhXqXG.Z.W.M V % % z j K K T P  .g.iX",
"S T P  .f.*XfXlX<Xm.N.w.` z # # & r U U R K ~ y.OXiXkXNX).T.g # # & = r Y K H R P  .d.=XfXlX<XG.Z.7._ z V % 1 j U R H K X.k.=XiX",
"T P } f.=XgXlX<Xm.N.w.^ a # # & e D U H R P +.OX=XiXrX`.;.g # # < : ; D H R R P  .g.=XfXhX<XL.Z.1._ i 1 % < 4 D F G H P o.OXdXdX",
"Q { d.iXgXmXyXG.N.w.` h u # , e r S G R K ! #.&XpXbX4X2.k , , = > D S G H T P  .g.=XvXhX0XL.Z.<._ k 1 , = * D S G E E ~ #.&XaXeX",
"| g.:XkXmXqXK._.1.' i 1 # , h r K K K P ! #.g.=XgXtX].M 1 , = J S S R T E Q  .d.iXcXlX0XK._.,.M g u # i e I T E K W ! %.oX=XhXAX",
"s.uXvXmXtXH.3.R.[ s % % , = r U K P X. .@.g.-XiX1XZX).a , : ; A G R P (  .@.g.uXgXnXtXB.6.Y.m p # # & : D K K P } +.r.|.-XiXbXBX",
"=XfXmXZXS.>.b a , # 1 2 z I J K L } p.OX&X-XdXnXCX(.n 6 * ; A K P Q { y.+X&XiXgXMXtXZ.=.t g p % # i h I K K P  .f.&X&XiXdXwXNXQ.",
"aXhXAX'.,.l u # # # u h ) K T E  .d.*XiXaXiX1X8XQ.n 6   * A S P O.u.g..XiXfXfXnX9XZ.:.l s % # # = 4 I J K P  .g.&XuXpXiX1XBXQ.g ",
"eXtX`.Y.k u . . * : r I U K L { f.=X-XdXeXtXCXj.n u   * ; S L | v.>XfXfXhXjXyXZX_.-.i # % , = : j D T K L | f.-XdXdX2XqXBX8.v # ",
"K.`.=.d % @ @ = w J S S S P } g.-XfXjX<XG.{.W.N   . * ; S P  .|.iXcXaXlXeX@XJ./.Y.d % $ # = > A S G K L | h.-XgXjXqXm.P.6.v # 1 ",
"-.N g @ @ # * w J K G K L | f.>X>X0X8XA.>.-.Z , & * ; J P  .h.iXgXlXtXAXJ.3.-.[ g % @ # & ; S G G J L | h.:X1X<X7X{...` m # , : ",
"5 # @ # , : ; A K K / ~ | h.>X1X#XF.5.<.l u + , = ; J L  .d.iXvXnX9XB.9.E.v u # # # & 0 r A S T / ~ +.|.:XsX#XH.e.` r u # # * ; ",
"# # % , h D S K P ! &.d.}.>X>X#Xl.w.] x u 7 6 < > S L | s.uXvXnX7XZ.` M g 6 # @ % i 0 q A S K Q &.g.}.-X1X3XH.!.] 3 , + & = ; K ",
"# 6 i h D S K P ! #.oX-X1X<X$XB.7.R.x @ 7 6 p r A J | g.sXvXMXCXq.` k i 6 # # u i e q A S P ~ y.oX1XsX;X3XH.!.U.d % % , e I J L ",
"i p e I S H K ! r..XuXsX2X5XV.Q.Y.d $ o 7 u j U K ! f.iXvXmXCXC.] p % % # , d p h I J T K ~ y.&XiXdXeX6XB.!.U.s $ O % 2 r S K ~ ",
"j e J S E P ! @..XvXkXyX7XS.!.U.s $ o X . 0 I K K | |.fXmX8X(.] u # % 8 i i r r U K R E ! t.&XfXhXyXBXA.Q.Z f o X + # 4 D G L | ",
"D D S T P ~ y..XxXkXMX7X7.<.[ f o o @ # 9 - A K ~ r.&X:X0XA.-.# X o # d z r D A K R E ~ y.&XcXkXyXBX5.>.N C $ o X 5 0 > S J ! t.",
"F G H E ~ t..XfXlXyX[.7.b g 8 $ o @ & = ; J K W y.OX>XqXp.-.9 o o @ , 3 > U S S R P } y..XcXlXMX[.6.t a u @ @ @ , : ; A A W y.=X",
"K K E } y.&XaXkXyX[.7.l < 1 O o @ & : D A J W &.|.dXnXZX9.k 6 @ + , 3 > K T K K P } y.&XfXlXqX].6.v u # O @   = r D K J ! y.OXiX",
"P (  .y.OXfXkXeXI.6.b d 1 B $ @ 0 r J G K W y. XiXdXeX[.E.g s # & : D S S E E (  .d.&XxXkX1XK.3.b u $ o X   * D F G K ! y.&XiXiX",
"o.f.h.&XfXgX2X5X4.y g 8 $ O # & > S K K W #.oX-XsXyXBXQ.m s , = : A G G K Q $.x.|. XiXgX2XL.4.^ i 8 o o   = ; G H E ! y.OX-XsXyX",
"f.XXaXaXfX1X5XD.<.i 8 $ $ # & : F H E W &.OXiXsXyXNX2.m # # < ; A H H T Q $.g.=XaXaXfXhX@XZ.,.h % $ X @ = D F G T Q t.&XuXdXwXBX",
"=XuXaXfX1Xm.N.^.[ u @ + # * ; A K ~ { t.OX-X-XyXVX2.a     : > A K P ( } #.|.=XpXaXlX1X@Xl.W.[ u # O + = ; J P ~  .i.&XiXsXyX[.<.",
"-XaXgX2X$XZ.^.' p # . . = > S P o.f.|. X-XdXyXBXE.c # + * > S K K ~ k.x.|.=XuXaXkXeXn.z.9.N f @ # & : ; J P $.x.|. XuXsXyXBX6.g ",
"aXlXyX7XB.7.U.u . , < : D S P X.f.=XiXiXiXqXVXE.Z # + = ; S K P { y.&X=X=XiXfXlXwX5XB.9.] p # # , : A K /  .h.uXpXiX-XyX].E.x # ",
"hXAXI.A.W.Y.g # . = : S S S X.x.-XaXfXgXwXBXE.v # # * > S G P ! i.OXiXuXpXfXlXyXG.A.!.-.u # # < > D S T X.v.-XaXpXhXyX].2.g + # ",
"yXBX6.=.N g , 1 d h D F T P  .|.aXaXgXeXBXE.Z s % * > S G G ~ p.OXiXpXpXaXlXyXF.*.` N a # , i h D G R P $.OXpXpXfXyX[.2.c . , * ",
"7X8.b a u # , d h r F H E ~ t..XaXgXMX7X6.k # # = ; A G H E o.+X=XiXiXgXyXAXK.4.y w u # u i j ) F G E } i..XfXkXAX].2.c 5 & = ; ",
"9.b p # # # , h j K G E ~ y. XiXiXnX7X3.k s # & : K H R T Q #.=XaXxXlX<XG.S.>._ a 6 @ % , h I U T P ~ y.OX-XhXyX{.2.a # . = ; A ",
"b p 8 $ % , 2 4 I G K ( u.oX=XiXwX5X3.v # , 2 w ; S R T Q $.d.XXxXgX;Xc.q.:.M i 6 @ + # = w I T T ~ y.OXiXsXqXI.6.k # + & : A K ",
"i % $ $ # 2 3 D S G K $.oXiXiX-X6XC.n # # s z I J S E P o.f.=X-XsX;Xx.l.e._ 2 % @ X   & * D S S P $.OXiXiX1X7X9.b # % , : D S S ",
"% $ o @ , 3 D F G G P #.&XaX>X%XJ.W.m # # 2 j U K G P $.|.=XiXdX;Xx.l.N.~._ + $ $ + & : ; S G T Q #.=XpX>Xn.S.<.x @ + < : A S T ",
"% $ + u e r J K K P $.d.=XfX1Xm.3.[ d # 1 2 I S T Q $.f.-X-XhX*Xf.z.B.9.Y.x % % $ , = > J S K Q o.h.-XdXeXF.>.[ f # , 3 D F G K ",
"% @ u = q q P P ~  .x.OX-XdXqXF.:.d s # < 3 D G T X.x.-XiXiX,Xx.k.B.5.-.x 1 % % u 0 q J P P W  .f.-XdXgX6XS.;.p $ % * 4 D G E { ",
"8 u h ; q L ~ y.f.g.&XdXdX<X5XN.Y.s # # = > S K J | |.iXdX,Xx.k.M.e.;.a 6 8 % 1 3 ; J L { y.f.|.-XdX1X6XF._.U.# $ + 3 D S S P | ",
"u 0 I I K ~ y.OXuXuXiXiX,XG.V.4.M V % & : A G K ~ t.&XaXhX@Xp.l.e.` a u $ $ s d r K K ( y. XiXpXiXsX<XL.e.W.Z % % 1 > A S K } i.",
"0 ; S G E 0.OX=XaXcXlX<X3XA.E.m 1 % 1 0 : S G P u.OXpXaXnXm.V.!.-.d 1 $ 8 # i > S T Q &.oXuXaXfXgX<XL.Z.<.m s 8 1 i > A G L y.*X",
"w A S E Q u.-XaXzXlX,Xn.M.<.M 1 % , < > D S T W i.-XcXbX$XV.e.U.g # % , u i e S G P W i.-XaXfXlX<Xm.N.:.v 6 % s z j A S K ! i.iX",
"S R T P o.g.iXzXfX1Xc.N.1.) i % , = > A S S P ! d.uXlXqXV.4.U.s # + & i h I S G E Q +.}.aXfXhX0Xb.l.4._ u # # d j U F T P  .g.iX",
"G T P  .f.-XfXhX1Xv.M.1.' i % % & : D S S K X.f.&X-XnXVX).Y.g #   & 0 > U S H E Q +.}.=XfXhX<Xb.N.1.l i , + & j I G H E } f.-XdX"
};
